<?xml version="1.0" encoding="utf-8"?>
<!-- Generator: Adobe Illustrator 16.0.4, SVG Export Plug-In . SVG Version: 6.00 Build 0)  -->
<svg version="1.2" baseProfile="tiny" id="Layer_1" xmlns="http://www.w3.org/2000/svg" xmlns:xlink="http://www.w3.org/1999/xlink"
	 x="0px" y="0px" width="920.256px" height="77.021px" viewBox="0 0 920.256 77.021" xml:space="preserve">
<image display="none" width="1806" height="79" id="Schatten" xlink:href="601717E50F440F7.jpeg"  transform="matrix(0.4553 0 0 0.4475 4.3921 26.0623)">
</image>
<g>
	
		<image opacity="0.45" width="38" height="38" xlink:href="601717E50F440F5.png"  transform="matrix(0.2084 0 0 0.2084 817.0371 41.9314)">
	</image>
	<g>
		<rect x="817.139" y="41.832" fill="#E20074" width="5.945" height="6.116"/>
	</g>
</g>
<g>
	
		<image opacity="0.45" width="38" height="38" xlink:href="601717E50F440FB.png"  transform="matrix(0.2084 0 0 0.2084 835.0371 41.9314)">
	</image>
	<g>
		<rect x="835.139" y="41.832" fill="#E20074" width="5.945" height="6.116"/>
	</g>
</g>
<g>
	
		<image opacity="0.45" width="38" height="38" xlink:href="601717E50F440FD.png"  transform="matrix(0.2084 0 0 0.2084 853.0371 41.9314)">
	</image>
	<g>
		<rect x="853.139" y="41.832" fill="#E20074" width="5.945" height="6.116"/>
	</g>
</g>
<g>
	
		<image opacity="0.45" width="38" height="38" xlink:href="601717E50F440FF.png"  transform="matrix(0.2084 0 0 0.2084 871.0371 41.9314)">
	</image>
	<g>
		<rect x="871.139" y="41.832" fill="#E20074" width="5.945" height="6.116"/>
	</g>
</g>
<g>
	
		<image opacity="0.45" width="38" height="38" xlink:href="601717E50F440FC.png"  transform="matrix(0.2084 0 0 0.2084 889.0371 41.9314)">
	</image>
	<g>
		<rect x="889.139" y="41.832" fill="#E20074" width="5.945" height="6.116"/>
	</g>
</g>
<g>
	
		<image opacity="0.45" width="38" height="38" xlink:href="601717E50F440F4.png"  transform="matrix(0.2084 0 0 0.2084 907.0371 41.9314)">
	</image>
	<g>
		<rect x="907.139" y="41.832" fill="#E20074" width="5.945" height="6.116"/>
	</g>
</g>
<g>
	
		<image opacity="0.45" width="38" height="38" xlink:href="601717E50F440F7.png"  transform="matrix(0.2084 0 0 0.2084 798.9121 41.9314)">
	</image>
	<g>
		<rect x="799.013" y="41.832" fill="#E20074" width="6.082" height="6.116"/>
	</g>
</g>
<g>
	
		<image opacity="0.45" width="38" height="38" xlink:href="601717E50F440F2.png"  transform="matrix(0.2084 0 0 0.2084 780.9199 41.9314)">
	</image>
	<g>
		<rect x="781.021" y="41.832" fill="#E20074" width="5.945" height="6.116"/>
	</g>
</g>
<g>
	
		<image opacity="0.45" width="38" height="38" xlink:href="DE356741B34D63B4.png"  transform="matrix(0.2084 0 0 0.2084 762.9473 41.9314)">
	</image>
	<g>
		<rect x="763.049" y="41.832" fill="#E20074" width="5.946" height="6.116"/>
	</g>
</g>
<g>
	
		<image opacity="0.45" width="33" height="38" xlink:href="DE356741B34D63B3.png"  transform="matrix(0.24 0 0 0.2084 744.8047 41.9314)">
	</image>
	<g>
		<rect x="744.905" y="41.832" fill="#E20074" width="6.097" height="6.116"/>
	</g>
</g>
<g>
	
		<image opacity="0.45" width="33" height="38" xlink:href="DE356741B34D63CC.png"  transform="matrix(0.24 0 0 0.2084 726.832 41.9314)">
	</image>
	<g>
		<rect x="726.933" y="41.832" fill="#E20074" width="6.097" height="6.116"/>
	</g>
</g>
<g>
	
		<image opacity="0.45" width="38" height="38" xlink:href="DE356741B34D63CF.png"  transform="matrix(0.2084 0 0 0.2084 708.8594 41.9314)">
	</image>
	<g>
		<rect x="708.96" y="41.832" fill="#E20074" width="5.93" height="6.116"/>
	</g>
</g>
<g>
	
		<image opacity="0.45" width="38" height="38" xlink:href="DE356741B34D63CD.png"  transform="matrix(0.2084 0 0 0.2084 690.8691 41.9314)">
	</image>
	<g>
		<rect x="690.97" y="41.832" fill="#E20074" width="5.945" height="6.116"/>
	</g>
</g>
<g>
	
		<image opacity="0.45" width="38" height="38" xlink:href="DE356741B34D63D3.png"  transform="matrix(0.2084 0 0 0.2084 672.7422 41.9314)">
	</image>
	<g>
		<rect x="672.843" y="41.832" fill="#E20074" width="6.099" height="6.116"/>
	</g>
</g>
<g>
	
		<image opacity="0.45" width="38" height="38" xlink:href="DE356741B34D63D4.png"  transform="matrix(0.2084 0 0 0.2084 654.7578 41.9314)">
	</image>
	<g>
		<rect x="654.858" y="41.832" fill="#E20074" width="5.944" height="6.116"/>
	</g>
</g>
<g>
	
		<image opacity="0.45" width="33" height="38" xlink:href="DE356741B34D63D7.png"  transform="matrix(0.24 0 0 0.2084 636.7832 41.9314)">
	</image>
	<g>
		<rect x="636.884" y="41.832" fill="#E20074" width="5.947" height="6.116"/>
	</g>
</g>
<g>
	
		<image opacity="0.45" width="33" height="38" xlink:href="DE356741B34D63D5.png"  transform="matrix(0.24 0 0 0.2084 618.8047 41.9314)">
	</image>
	<g>
		<rect x="618.905" y="41.832" fill="#E20074" width="5.931" height="6.116"/>
	</g>
</g>
<g>
	
		<image opacity="0.45" width="38" height="38" xlink:href="DE356741B34D63D2.png"  transform="matrix(0.2084 0 0 0.2084 600.668 41.9314)">
	</image>
	<g>
		<rect x="600.769" y="41.832" fill="#E20074" width="6.097" height="6.116"/>
	</g>
</g>
<g>
	
		<image opacity="0.45" width="38" height="38" xlink:href="DE356741B34D63F7.png"  transform="matrix(0.2084 0 0 0.2084 582.6934 41.9314)">
	</image>
	<g>
		<rect x="582.794" y="41.832" fill="#E20074" width="5.947" height="6.116"/>
	</g>
</g>
<g>
	
		<image opacity="0.45" width="38" height="38" xlink:href="DE356741B34D63F1.png"  transform="matrix(0.2084 0 0 0.2084 564.7031 41.9314)">
	</image>
	<g>
		<rect x="564.804" y="41.832" fill="#E20074" width="5.945" height="6.116"/>
	</g>
</g>
<g>
	
		<image opacity="0.45" width="38" height="38" xlink:href="DE356741B34D63F3.png"  transform="matrix(0.2084 0 0 0.2084 546.5781 41.9314)">
	</image>
	<g>
		<rect x="546.68" y="41.832" fill="#E20074" width="6.096" height="6.116"/>
	</g>
</g>
<g>
	
		<image opacity="0.45" width="38" height="38" xlink:href="DE356741B34D63FE.png"  transform="matrix(0.2084 0 0 0.2084 528.6055 41.9314)">
	</image>
	<g>
		<rect x="528.706" y="41.832" fill="#E20074" width="6.081" height="6.116"/>
	</g>
</g>
<g>
	
		<image opacity="0.45" width="38" height="38" xlink:href="DE356741B34D63FF.png"  transform="matrix(0.2084 0 0 0.2084 510.6133 41.9314)">
	</image>
	<g>
		<rect x="510.714" y="41.832" fill="#E20074" width="5.947" height="6.116"/>
	</g>
</g>
<g>
	
		<image opacity="0.45" width="38" height="38" xlink:href="DE356741B34D63F2.png"  transform="matrix(0.2084 0 0 0.2084 492.6387 41.9314)">
	</image>
	<g>
		<rect x="492.74" y="41.832" fill="#E20074" width="5.946" height="6.116"/>
	</g>
</g>
<g>
	
		<image opacity="0.45" width="38" height="38" xlink:href="DE356741B34D63F5.png"  transform="matrix(0.2084 0 0 0.2084 474.502 41.9314)">
	</image>
	<g>
		<rect x="474.604" y="41.832" fill="#E20074" width="6.099" height="6.116"/>
	</g>
</g>
<g>
	
		<image opacity="0.45" width="38" height="38" xlink:href="DE356741B34D63F6.png"  transform="matrix(0.2084 0 0 0.2084 456.5293 41.9314)">
	</image>
	<g>
		<rect x="456.631" y="41.832" fill="#E20074" width="5.946" height="6.116"/>
	</g>
</g>
<g>
	
		<image opacity="0.45" width="38" height="38" xlink:href="DE356741B34D63F4.png"  transform="matrix(0.2084 0 0 0.2084 438.5586 41.9314)">
	</image>
	<g>
		<rect x="438.658" y="41.832" fill="#E20074" width="5.931" height="6.116"/>
	</g>
</g>
<g>
	
		<image opacity="0.45" width="38" height="38" xlink:href="DE356741B34D63CE.png"  transform="matrix(0.2084 0 0 0.2084 420.4141 41.9314)">
	</image>
	<g>
		<rect x="420.514" y="41.832" fill="#E20074" width="6.099" height="6.116"/>
	</g>
</g>
<g>
	
		<image opacity="0.45" width="38" height="38" xlink:href="DE356741B34D6416.png"  transform="matrix(0.2084 0 0 0.2084 402.4395 41.9314)">
	</image>
	<g>
		<rect x="402.541" y="41.832" fill="#E20074" width="6.098" height="6.116"/>
	</g>
</g>
<g>
	
		<image opacity="0.45" width="38" height="38" xlink:href="DE356741B34D6429.png"  transform="matrix(0.2084 0 0 0.2084 384.4492 41.9314)">
	</image>
	<g>
		<rect x="384.55" y="41.832" fill="#E20074" width="5.947" height="6.116"/>
	</g>
</g>
<g>
	
		<image opacity="0.45" width="38" height="38" xlink:href="DE356741B34D642A.png"  transform="matrix(0.2084 0 0 0.2084 366.4766 41.9314)">
	</image>
	<g>
		<rect x="366.577" y="41.832" fill="#E20074" width="5.945" height="6.116"/>
	</g>
</g>
<g>
	
		<image opacity="0.45" width="38" height="38" xlink:href="DE356741B34D6428.png"  transform="matrix(0.2084 0 0 0.2084 348.3398 41.9314)">
	</image>
	<g>
		<rect x="348.44" y="41.832" fill="#E20074" width="6.096" height="6.116"/>
	</g>
</g>
<g>
	
		<image opacity="0.45" width="38" height="38" xlink:href="DE356741B34D642E.png"  transform="matrix(0.2084 0 0 0.2084 330.3652 41.9314)">
	</image>
	<g>
		<rect x="330.466" y="41.832" fill="#E20074" width="6.097" height="6.116"/>
	</g>
</g>
<g>
	
		<image opacity="0.45" width="38" height="38" xlink:href="DE356741B34D642B.png"  transform="matrix(0.2084 0 0 0.2084 312.3867 41.9314)">
	</image>
	<g>
		<rect x="312.488" y="41.832" fill="#E20074" width="5.93" height="6.116"/>
	</g>
</g>
<g>
	
		<image opacity="0.45" width="38" height="38" xlink:href="DE356741B34D6426.png"  transform="matrix(0.2084 0 0 0.2084 294.4019 41.9314)">
	</image>
	<g>
		<rect x="294.502" y="41.832" fill="#E20074" width="5.946" height="6.116"/>
	</g>
</g>
<g>
	
		<image opacity="0.45" width="38" height="38" xlink:href="DE356741B34D6427.png"  transform="matrix(0.2084 0 0 0.2084 276.2759 41.9314)">
	</image>
	<g>
		<rect x="276.376" y="41.832" fill="#E20074" width="6.098" height="6.116"/>
	</g>
</g>
<g>
	
		<image opacity="0.45" width="38" height="38" xlink:href="DE356741B34D6436.png"  transform="matrix(0.2084 0 0 0.2084 258.2847 41.9314)">
	</image>
	<g>
		<rect x="258.385" y="41.832" fill="#E20074" width="5.946" height="6.116"/>
	</g>
</g>
<g>
	
		<image opacity="0.45" width="38" height="38" xlink:href="DE356741B34D6439.png"  transform="matrix(0.2084 0 0 0.2084 240.312 41.9314)">
	</image>
	<g>
		<rect x="240.413" y="41.832" fill="#E20074" width="5.946" height="6.116"/>
	</g>
</g>
<g>
	
		<image opacity="0.45" width="38" height="38" xlink:href="DE356741B34D6405.png"  transform="matrix(0.2084 0 0 0.2084 222.187 41.9314)">
	</image>
	<g>
		<rect x="222.287" y="41.832" fill="#E20074" width="6.083" height="6.116"/>
	</g>
</g>
<g>
	
		<image opacity="0.45" width="38" height="38" xlink:href="DE356741B34D6407.png"  transform="matrix(0.2084 0 0 0.2084 204.1958 41.9314)">
	</image>
	<g>
		<rect x="204.296" y="41.832" fill="#E20074" width="6.097" height="6.116"/>
	</g>
</g>
<g>
	
		<image opacity="0.45" width="38" height="38" xlink:href="DE356741B34D6404.png"  transform="matrix(0.2084 0 0 0.2084 186.2231 41.9314)">
	</image>
	<g>
		<rect x="186.323" y="41.832" fill="#E20074" width="5.945" height="6.116"/>
	</g>
</g>
<g>
	
		<image opacity="0.45" width="38" height="38" xlink:href="DE356741B34D641B.png"  transform="matrix(0.2084 0 0 0.2084 168.2495 41.9314)">
	</image>
	<g>
		<rect x="168.35" y="41.832" fill="#E20074" width="5.932" height="6.116"/>
	</g>
</g>
<g>
	
		<image opacity="0.45" width="38" height="38" xlink:href="DE356741B34D641D.png"  transform="matrix(0.2084 0 0 0.2084 150.1118 41.9314)">
	</image>
	<g>
		<rect x="150.212" y="41.832" fill="#E20074" width="6.097" height="6.116"/>
	</g>
</g>
<g>
	
		<image opacity="0.45" width="38" height="38" xlink:href="DE356741B34D641F.png"  transform="matrix(0.2084 0 0 0.2084 132.1392 41.9314)">
	</image>
	<g>
		<rect x="132.24" y="41.832" fill="#E20074" width="6.097" height="6.116"/>
	</g>
</g>
<g>
	
		<image opacity="0.45" width="38" height="38" xlink:href="DE356741B34D641C.png"  transform="matrix(0.2084 0 0 0.2084 114.1479 41.9314)">
	</image>
	<g>
		<rect x="114.248" y="41.832" fill="#E20074" width="5.947" height="6.116"/>
	</g>
</g>
<g>
	
		<image opacity="0.45" width="38" height="38" xlink:href="DE356741B34D6406.png"  transform="matrix(0.2084 0 0 0.2084 96.1753 41.9314)">
	</image>
	<g>
		<rect x="96.275" y="41.832" fill="#E20074" width="5.946" height="6.116"/>
	</g>
</g>
<g>
	
		<image opacity="0.45" width="38" height="38" xlink:href="DE356741B34D6401.png"  transform="matrix(0.2084 0 0 0.2084 78.0308 41.9314)">
	</image>
	<g>
		<rect x="78.131" y="41.832" fill="#E20074" width="6.097" height="6.116"/>
	</g>
</g>
<g>
	
		<image opacity="0.45" width="38" height="38" xlink:href="DE356741B34D6402.png"  transform="matrix(0.2084 0 0 0.2084 60.0591 41.9314)">
	</image>
	<g>
		<rect x="60.16" y="41.832" fill="#E20074" width="5.946" height="6.116"/>
	</g>
</g>
<g>
	
		<image opacity="0.55" width="117" height="142" xlink:href="DE356741B34D6460.png"  transform="matrix(0.2277 0 0 0.2265 41.6357 28.0027)">
	</image>
	<g>
		<path fill="#E20074" d="M65.954,28.202H42.341l-0.305,10.412l1.682,0.304c0.416-6.095,3.152-8.831,8.079-9.335
			c0,0,0,19.78,0,23.404c0,3.392-3.358,3.218-3.358,3.218h-1.527v1.686h14.472v-1.686h-1.528c0,0-3.358,0.174-3.358-3.218
			c0-3.624,0-23.404,0-23.404c4.928,0.504,7.665,3.24,8.079,9.335l1.682-0.304L65.954,28.202z"/>
	</g>
</g>
<g>
	
		<image opacity="0.45" width="38" height="38" xlink:href="DE356741B34D6467.png"  transform="matrix(0.2084 0 0 0.2084 41.9341 41.9314)">
	</image>
	<g>
		<rect x="42.034" y="41.832" fill="#E20074" width="5.931" height="6.116"/>
	</g>
</g>
<g>
	
		<image opacity="0.45" width="38" height="38" xlink:href="DE356741B34D6461.png"  transform="matrix(0.2084 0 0 0.2084 23.9458 41.9314)">
	</image>
	<g>
		<rect x="24.046" y="41.832" fill="#E20074" width="5.945" height="6.116"/>
	</g>
</g>
<g>
	
		<image opacity="0.45" width="33" height="38" xlink:href="DE356741B34D6463.png"  transform="matrix(0.24 0 0 0.2084 5.8198 41.9314)">
	</image>
	<g>
		<rect x="5.92" y="41.832" fill="#E20074" width="6.097" height="6.116"/>
	</g>
</g>
</svg>
