<?xml version="1.0" encoding="utf-8"?>
<!-- Generator: Adobe Illustrator 16.0.4, SVG Export Plug-In . SVG Version: 6.00 Build 0)  -->
<svg version="1.2" baseProfile="tiny" id="Layer_1" xmlns="http://www.w3.org/2000/svg" xmlns:xlink="http://www.w3.org/1999/xlink"
	 x="0px" y="0px" width="117.617px" height="15.436px" viewBox="777.373 14.964 117.617 15.436" xml:space="preserve">
<image display="none" width="1806" height="79" id="Schatten" xlink:href="193B379EFD0AE136.jpeg"  transform="matrix(0.4553 0 0 0.4475 4.3921 26.0623)">
</image>
<g>
	<path fill="#E20074" d="M777.373,27.271V15.238h1.473v10.755h5.236v1.278H777.373z"/>
	<path fill="#E20074" d="M785.862,17.072v-1.834h1.349v1.834H785.862z M785.862,27.271v-8.305h1.349v8.305H785.862z"/>
	<path fill="#E20074" d="M790.085,27.271v-7.186h-1.199v-1.119h1.199v-0.803c0-1.116,0.104-1.863,0.31-2.239
		c0.353-0.641,0.926-0.961,1.719-0.961c0.259,0,0.553,0.041,0.882,0.124v1.226c-0.259-0.105-0.478-0.158-0.652-0.158
		c-0.418,0-0.685,0.176-0.803,0.529c-0.07,0.211-0.104,0.561-0.104,1.049v1.233h1.365v1.119h-1.365v7.186H790.085z"/>
	<path fill="#E20074" d="M800.531,23.472h-5.475c0.012,0.559,0.092,1.047,0.237,1.464c0.354,1.005,0.996,1.507,1.931,1.507
		c0.734,0,1.265-0.313,1.588-0.942c0.116-0.229,0.227-0.522,0.325-0.882h1.306c-0.123,0.676-0.351,1.234-0.68,1.675
		c-0.6,0.823-1.439,1.234-2.521,1.234c-1.205,0-2.115-0.459-2.732-1.375c-0.547-0.812-0.819-1.831-0.819-3.061
		c0-1.274,0.313-2.326,0.942-3.154c0.623-0.817,1.461-1.227,2.513-1.227c0.869,0,1.594,0.271,2.17,0.812
		c0.621,0.594,1.002,1.476,1.137,2.645C800.493,22.515,800.52,22.949,800.531,23.472z M799.156,22.388
		c-0.041-0.595-0.149-1.084-0.326-1.473c-0.341-0.747-0.896-1.12-1.666-1.12c-0.729,0-1.275,0.338-1.64,1.015
		c-0.225,0.418-0.373,0.942-0.449,1.578H799.156z"/>
	<path fill="#E20074" d="M806.051,17.072v-1.834h1.35v1.834H806.051z M806.051,27.271v-8.305h1.35v8.305H806.051z"/>
	<path fill="#E20074" d="M809.269,24.927h1.385c0.034,0.987,0.575,1.48,1.622,1.48c0.505,0,0.885-0.126,1.137-0.379
		c0.212-0.211,0.316-0.49,0.316-0.837c0-0.465-0.239-0.844-0.723-1.139c-0.182-0.11-0.62-0.303-1.312-0.572
		c-0.746-0.293-1.275-0.607-1.587-0.942c-0.389-0.424-0.581-0.935-0.581-1.534c0-0.711,0.252-1.284,0.758-1.719
		c0.452-0.383,1.055-0.573,1.807-0.573c1.076,0,1.843,0.364,2.301,1.094c0.225,0.347,0.358,0.781,0.406,1.305h-1.34
		c-0.024-0.364-0.127-0.658-0.309-0.882c-0.254-0.299-0.611-0.449-1.076-0.449c-0.423,0-0.746,0.123-0.971,0.37
		c-0.176,0.2-0.264,0.456-0.264,0.768c0,0.341,0.117,0.613,0.354,0.819c0.229,0.2,0.682,0.426,1.356,0.679
		c0.881,0.323,1.495,0.632,1.842,0.926c0.529,0.446,0.794,1.018,0.794,1.71c0,0.754-0.259,1.36-0.775,1.825
		c-0.481,0.436-1.154,0.652-2.02,0.652c-1.28,0-2.174-0.405-2.68-1.217C809.444,25.894,809.298,25.432,809.269,24.927z"/>
	<path fill="#E20074" d="M820.8,27.271v-7.186h-1.199v-1.119h1.199v-0.803c0-1.116,0.104-1.863,0.31-2.239
		c0.353-0.641,0.926-0.961,1.719-0.961c0.259,0,0.553,0.041,0.882,0.124v1.226c-0.259-0.105-0.477-0.158-0.652-0.158
		c-0.418,0-0.685,0.176-0.803,0.529c-0.069,0.211-0.104,0.561-0.104,1.049v1.233h1.365v1.119h-1.365v7.186H820.8z"/>
	<path fill="#E20074" d="M828.055,18.712c1.069,0,1.931,0.402,2.582,1.207c0.629,0.776,0.943,1.84,0.943,3.191
		c0,1.499-0.373,2.646-1.119,3.447c-0.605,0.646-1.414,0.97-2.425,0.97c-1.175,0-2.077-0.417-2.706-1.252
		c-0.617-0.823-0.926-1.875-0.926-3.156c0-1.233,0.275-2.242,0.828-3.022C825.892,19.173,826.832,18.712,828.055,18.712z
		 M827.975,19.796c-0.635,0-1.146,0.271-1.532,0.812c-0.447,0.629-0.671,1.463-0.671,2.503c0,1.058,0.218,1.896,0.652,2.513
		c0.388,0.547,0.922,0.819,1.604,0.819c0.61,0,1.097-0.231,1.455-0.696c0.486-0.635,0.73-1.51,0.73-2.627
		c0-1.062-0.215-1.896-0.644-2.494C829.183,20.072,828.65,19.796,827.975,19.796z"/>
	<path fill="#E20074" d="M833.6,27.271v-8.305h1.262v1.561c0.54-1.257,1.441-1.862,2.706-1.815v1.507
		c-0.212-0.022-0.358-0.034-0.44-0.034c-0.629,0-1.138,0.262-1.525,0.784c-0.322,0.436-0.522,1.022-0.6,1.764
		c-0.035,0.394-0.053,0.917-0.053,1.568v2.972L833.6,27.271L833.6,27.271z"/>
	<path fill="#E20074" d="M841.771,24.927h1.385c0.035,0.987,0.576,1.48,1.622,1.48c0.505,0,0.885-0.126,1.137-0.379
		c0.212-0.211,0.317-0.49,0.317-0.837c0-0.465-0.24-0.844-0.724-1.139c-0.182-0.11-0.62-0.303-1.312-0.572
		c-0.746-0.293-1.275-0.607-1.587-0.942c-0.389-0.424-0.581-0.935-0.581-1.534c0-0.711,0.252-1.284,0.758-1.719
		c0.452-0.383,1.055-0.573,1.807-0.573c1.076,0,1.843,0.364,2.302,1.094c0.224,0.347,0.357,0.781,0.405,1.305h-1.34
		c-0.024-0.364-0.127-0.658-0.309-0.882c-0.253-0.299-0.611-0.449-1.076-0.449c-0.423,0-0.746,0.123-0.97,0.37
		c-0.177,0.2-0.265,0.456-0.265,0.768c0,0.341,0.117,0.613,0.354,0.819c0.229,0.2,0.682,0.426,1.356,0.679
		c0.881,0.323,1.495,0.632,1.842,0.926c0.529,0.446,0.795,1.018,0.795,1.71c0,0.754-0.26,1.36-0.776,1.825
		c-0.481,0.436-1.154,0.652-2.019,0.652c-1.281,0-2.175-0.405-2.681-1.217C841.948,25.894,841.802,25.432,841.771,24.927z"/>
	<path fill="#E20074" d="M849.521,27.271V15.238h1.349v4.734c0.559-0.842,1.337-1.262,2.336-1.262s1.71,0.361,2.134,1.084
		c0.246,0.417,0.37,1.111,0.37,2.08v5.396h-1.349v-5.236c0-0.734-0.071-1.24-0.212-1.517c-0.247-0.481-0.677-0.724-1.287-0.724
		c-0.823,0-1.404,0.414-1.745,1.243c-0.165,0.405-0.247,1.176-0.247,2.311v3.923H849.521z"/>
	<path fill="#E20074" d="M864.631,26.144v1.04c-0.265,0.164-0.55,0.246-0.854,0.246c-0.358,0-0.639-0.108-0.839-0.326
		c-0.198-0.211-0.299-0.499-0.299-0.863v-0.238c-0.665,1.018-1.511,1.525-2.539,1.525c-0.641,0-1.185-0.188-1.631-0.564
		c-0.541-0.451-0.812-1.065-0.812-1.843c0-0.856,0.326-1.527,0.979-2.01c0.488-0.364,1.186-0.594,2.09-0.688
		c0.405-0.041,1.015-0.072,1.824-0.097V21.56c0-1.17-0.54-1.755-1.622-1.755c-0.646,0-1.109,0.224-1.393,0.67
		c-0.146,0.24-0.241,0.591-0.282,1.049h-1.312c0.041-0.869,0.312-1.548,0.812-2.036c0.534-0.517,1.287-0.775,2.257-0.775
		c1.069,0,1.854,0.326,2.354,0.979c0.247,0.323,0.396,0.749,0.449,1.277c0.022,0.205,0.034,0.617,0.034,1.233v3.139
		c0.006,0.335,0.013,0.532,0.019,0.592c0.018,0.229,0.13,0.344,0.335,0.344C864.334,26.275,864.479,26.231,864.631,26.144z
		 M862.55,23.234c-0.84,0.035-1.498,0.104-1.975,0.211c-0.493,0.112-0.863,0.297-1.11,0.556c-0.3,0.307-0.45,0.67-0.45,1.093
		c0,0.384,0.127,0.705,0.38,0.971c0.24,0.253,0.553,0.379,0.936,0.379c0.47,0,0.896-0.164,1.277-0.493
		c0.363-0.317,0.623-0.731,0.775-1.243c0.111-0.37,0.167-0.708,0.167-1.014V23.234z"/>
	<path fill="#E20074" d="M866.402,27.271v-8.305h1.261v1.561c0.54-1.257,1.442-1.862,2.706-1.815v1.507
		c-0.212-0.022-0.358-0.034-0.44-0.034c-0.629,0-1.138,0.262-1.524,0.784c-0.323,0.436-0.523,1.022-0.601,1.764
		c-0.035,0.394-0.053,0.917-0.053,1.568v2.972L866.402,27.271L866.402,27.271z"/>
	<path fill="#E20074" d="M871.851,17.072v-1.834h1.35v1.834H871.851z M871.851,27.271v-8.305h1.35v8.305H871.851z"/>
	<path fill="#E20074" d="M875.756,27.271v-8.305h1.261v1.119c0.611-0.917,1.435-1.375,2.469-1.375c0.459,0,0.87,0.097,1.238,0.286
		c0.367,0.191,0.647,0.46,0.843,0.808c0.192,0.328,0.309,0.698,0.344,1.11c0.022,0.287,0.035,0.616,0.035,0.987v5.368h-1.35v-4.894
		c0-0.752-0.044-1.29-0.133-1.612c-0.082-0.301-0.245-0.536-0.489-0.71s-0.532-0.261-0.868-0.261c-0.604,0-1.09,0.241-1.453,0.724
		c-0.247,0.329-0.406,0.759-0.478,1.287c-0.047,0.328-0.069,0.809-0.069,1.438v4.028L875.756,27.271L875.756,27.271z"/>
	<path fill="#E20074" d="M884.139,27.941h1.366c0.082,0.388,0.241,0.688,0.478,0.898c0.347,0.317,0.799,0.477,1.356,0.477
		c1.353,0,2.027-0.908,2.027-2.725v-0.547c-0.44,0.895-1.183,1.34-2.223,1.34c-0.986,0-1.771-0.379-2.354-1.137
		c-0.6-0.787-0.899-1.818-0.899-3.095c0-1.346,0.32-2.434,0.961-3.262c0.282-0.376,0.633-0.667,1.05-0.872
		c0.418-0.206,0.854-0.31,1.313-0.31c0.569,0,1.072,0.152,1.507,0.458c0.253,0.184,0.497,0.459,0.731,0.829v-1.031h1.252v7.132
		c0,1.217-0.176,2.134-0.528,2.751c-0.316,0.547-0.772,0.958-1.366,1.233c-0.452,0.211-0.955,0.317-1.508,0.317
		c-1.182,0-2.061-0.377-2.636-1.129C884.374,28.879,884.197,28.436,884.139,27.941z M887.286,19.796c-0.67,0-1.19,0.342-1.562,1.022
		c-0.312,0.582-0.467,1.337-0.467,2.266c0,1.176,0.246,2.04,0.74,2.592c0.364,0.417,0.799,0.626,1.305,0.626
		c0.693,0,1.234-0.354,1.622-1.065c0.317-0.594,0.477-1.369,0.477-2.327c0-1.088-0.235-1.91-0.705-2.469
		C888.332,20.01,887.861,19.796,887.286,19.796z"/>
	<path fill="#E20074" d="M894.99,25.394v1.878h-1.754v-1.878H894.99z"/>
</g>
</svg>
