<?xml version="1.0" encoding="utf-8"?>
<!-- Generator: Adobe Illustrator 16.0.4, SVG Export Plug-In . SVG Version: 6.00 Build 0)  -->
<svg version="1.2" baseProfile="tiny" id="Ebene_1" xmlns="http://www.w3.org/2000/svg" xmlns:xlink="http://www.w3.org/1999/xlink"
	 x="0px" y="0px" width="280px" height="200px" viewBox="0 0 280 200" xml:space="preserve">
<polyline fill="none" stroke="#E20074" stroke-width="2" stroke-linecap="round" stroke-linejoin="round" stroke-miterlimit="10" points="
	133.391,102.09 74.34,111.7 49.609,146.49 "/>
<line fill="none" stroke="#E20074" stroke-width="2" stroke-linecap="round" stroke-linejoin="round" stroke-miterlimit="10" x1="132.811" y1="105.3" x2="119.29" y2="155.721"/>
<polyline fill="none" stroke="#E20074" stroke-width="2" stroke-linecap="round" stroke-linejoin="round" stroke-miterlimit="10" points="
	133.88,102.33 180.51,86.641 227.76,69.8 "/>
<polyline fill="none" stroke="#E20074" stroke-width="2" stroke-linecap="round" stroke-linejoin="round" stroke-miterlimit="10" points="
	133.09,101.26 98.939,58.2 58.85,40.95 53.26,39.07 "/>
<polyline fill="none" stroke="#E20074" stroke-width="2" stroke-linecap="round" stroke-linejoin="round" stroke-miterlimit="10" points="
	133.16,103.34 180.68,138.79 225.721,153.38 "/>
<line fill="none" stroke="#E20074" stroke-width="2" stroke-linecap="round" stroke-linejoin="round" stroke-miterlimit="10" x1="133.83" y1="101.87" x2="156.5" y2="46.279"/>
<path fill="#FFFFFF" stroke="#E20074" stroke-width="2" stroke-linecap="round" stroke-linejoin="round" stroke-miterlimit="10" d="
	M60.609,29.82c6.461,0,11.69,5.24,11.69,11.689c0,6.461-5.229,11.7-11.69,11.7c-6.459,0-11.689-5.239-11.689-11.7
	C48.92,35.061,54.15,29.82,60.609,29.82z"/>
<path fill="#FFFFFF" stroke="#E20074" stroke-width="2" stroke-linecap="round" stroke-linejoin="round" stroke-miterlimit="10" d="
	M184.109,67.221c9.83,0,17.801,7.959,17.801,17.789c0,9.83-7.971,17.801-17.801,17.801s-17.799-7.971-17.799-17.801
	C166.311,75.18,174.279,67.221,184.109,67.221z"/>
<path fill="#E20074" d="M190.09,75.4c0-0.4-0.33-0.721-0.73-0.721h-10.59c-0.41,0-0.74,0.32-0.74,0.721v16.98
	c0,0.41,0.33,0.729,0.74,0.729h10.59c0.4,0,0.73-0.319,0.73-0.729V75.4z M184.061,96.13c0.561,0,1.021-0.45,1.021-1
	c0-0.56-0.46-1.01-1.021-1.01c-0.569,0-1.031,0.45-1.031,1.01C183.029,95.68,183.49,96.13,184.061,96.13z M189.971,96.9h-11.941
	c-0.75,0-1.35-0.601-1.35-1.33V74.439c0-0.739,0.6-1.33,1.35-1.33h11.941c0.739,0,1.35,0.591,1.35,1.33V95.57
	C191.32,96.3,190.71,96.9,189.971,96.9z"/>
<path fill="#FFFFFF" stroke="#E20074" stroke-width="2" stroke-linecap="round" stroke-linejoin="round" stroke-miterlimit="10" d="
	M134.109,73.34c15.831,0,28.67,12.84,28.67,28.67c0,15.84-12.84,28.67-28.67,28.67c-15.84,0-28.67-12.83-28.67-28.67
	C105.439,86.18,118.27,73.34,134.109,73.34z"/>
<path fill="#E20074" d="M148.43,116c0,0-0.1-8.01-0.3-9.21C146.76,98.26,140.73,97,133.5,97c-7.5,0-13.721,1.95-14.77,10.76
	c-0.101,0.87-0.16,8.24-0.16,8.24s4.65,1.57,15.09,1.57C144.12,117.57,148.43,116,148.43,116z"/>
<circle fill="#E20074" cx="133.25" cy="90" r="8"/>
<path fill="#FFFFFF" stroke="#E20074" stroke-width="2" stroke-linecap="round" stroke-linejoin="round" stroke-miterlimit="10" d="
	M157.109,28.221c9.83,0,17.801,7.959,17.801,17.789c0,9.83-7.971,17.801-17.801,17.801S139.31,55.84,139.31,46.01
	C139.31,36.18,147.279,28.221,157.109,28.221z"/>
<path fill="#E20074" d="M166,54.7c0,0-0.07-4.979-0.189-5.72c-0.851-5.291-4.59-6.08-9.08-6.08c-4.66,0-8.51,1.22-9.17,6.68
	c-0.061,0.54-0.09,5.12-0.09,5.12s2.879,0.97,9.359,0.97C163.32,55.67,166,54.7,166,54.7z"/>
<path fill="#E20074" d="M156.58,33.59c2.74,0,4.96,2.221,4.96,4.971c0,2.739-2.22,4.959-4.96,4.959c-2.75,0-4.971-2.22-4.971-4.959
	C151.609,35.811,153.83,33.59,156.58,33.59z"/>
<path fill="#FFFFFF" stroke="#E20074" stroke-width="2" stroke-linecap="round" stroke-linejoin="round" stroke-miterlimit="10" d="
	M181.109,120.221c9.83,0,17.801,7.959,17.801,17.789s-7.971,17.801-17.801,17.801s-17.799-7.971-17.799-17.801
	S171.279,120.221,181.109,120.221z"/>
<path fill="#E20074" d="M190,146.7c0,0-0.07-4.979-0.189-5.72c-0.851-5.291-4.59-6.08-9.08-6.08c-4.66,0-8.51,1.22-9.17,6.68
	c-0.061,0.54-0.09,5.12-0.09,5.12s2.879,0.97,9.359,0.97C187.32,147.67,190,146.7,190,146.7z"/>
<path fill="#E20074" d="M180.58,125.59c2.74,0,4.96,2.221,4.96,4.971c0,2.739-2.22,4.959-4.96,4.959c-2.75,0-4.971-2.22-4.971-4.959
	C175.609,127.811,177.83,125.59,180.58,125.59z"/>
<path fill="#FFFFFF" stroke="#E20074" stroke-width="2" stroke-linecap="round" stroke-linejoin="round" stroke-miterlimit="10" d="
	M75.109,94.221c9.83,0,17.801,7.958,17.801,17.789s-7.971,17.801-17.801,17.801S57.31,121.84,57.31,112.01
	S65.279,94.221,75.109,94.221z"/>
<path fill="#E20074" d="M84,120.7c0,0-0.07-4.979-0.189-5.72c-0.851-5.291-4.59-6.08-9.08-6.08c-4.66,0-8.51,1.22-9.17,6.68
	c-0.061,0.54-0.09,5.12-0.09,5.12s2.879,0.97,9.359,0.97C81.32,121.67,84,120.7,84,120.7z"/>
<path fill="#E20074" d="M74.58,99.59c2.74,0,4.96,2.221,4.96,4.971c0,2.739-2.22,4.959-4.96,4.959c-2.75,0-4.971-2.22-4.971-4.959
	C69.609,101.811,71.83,99.59,74.58,99.59z"/>
<path fill="#FFFFFF" stroke="#E20074" stroke-width="2" stroke-linecap="round" stroke-linejoin="round" stroke-miterlimit="10" d="
	M99.37,41.49c8.979,0,16.26,7.279,16.26,16.26s-7.28,16.26-16.26,16.26s-16.25-7.28-16.25-16.26S90.391,41.49,99.37,41.49z"/>
<polyline fill="#E20074" points="108.54,52.66 108.37,63.609 89.74,63.54 89.859,52.76 "/>
<polygon fill="#E20074" stroke="#FFFFFF" stroke-width="2" stroke-linecap="round" stroke-linejoin="round" stroke-miterlimit="10" points="
	90.23,52.05 109.279,52.189 99.35,59.17 "/>
<path fill="#FFFFFF" stroke="#E20074" stroke-width="2" stroke-linecap="round" stroke-linejoin="round" stroke-miterlimit="10" d="
	M227.109,50.88c10.561,0,19.131,8.57,19.131,19.13c0,10.57-8.57,19.131-19.131,19.131S207.98,80.58,207.98,70.01
	C207.98,59.45,216.55,50.88,227.109,50.88z"/>
<path fill="#FFFFFF" stroke="#E20074" stroke-width="2" stroke-linecap="round" stroke-linejoin="round" stroke-miterlimit="10" d="
	M49.609,134.82c6.461,0,11.69,5.24,11.69,11.688c0,6.461-5.229,11.7-11.69,11.7c-6.459,0-11.689-5.239-11.689-11.7
	C37.92,140.061,43.15,134.82,49.609,134.82z"/>
<path fill="#E20074" d="M230.391,80.67v-2.391h-7.021v2.391l-1.41,1.43v0.48h9.84V82.1L230.391,80.67z M216.811,62.54h20.141v12.88
	h-20.141V62.54z M216.34,60.62c-0.57,0-1.41,0.84-1.41,1.44V75.9c0,0.6,0.84,1.43,1.41,1.43h21.08c0.561,0,1.4-0.83,1.4-1.43V62.06
	c0-0.601-0.84-1.44-1.4-1.44H216.34z"/>
<path fill="#FFFFFF" stroke="#E20074" stroke-width="2" stroke-linecap="round" stroke-linejoin="round" stroke-miterlimit="10" d="
	M225.609,140.82c6.461,0,11.689,5.24,11.689,11.688c0,6.461-5.229,11.7-11.689,11.7c-6.459,0-11.689-5.239-11.689-11.7
	C213.92,146.061,219.15,140.82,225.609,140.82z"/>
<polyline fill="none" stroke="#E20074" stroke-width="2" stroke-linecap="round" stroke-linejoin="round" stroke-miterlimit="10" points="
	219.8,153.471 224.471,157.641 231.82,148.029 "/>
<path fill="none" stroke="#E10073" stroke-width="2" stroke-linecap="round" stroke-linejoin="round" stroke-miterlimit="10" d="
	M44.3,140c6.761,0.17,11.511,5.721,11.7,11.37"/>
<path fill="none" stroke="#E10073" stroke-width="2" stroke-linecap="round" stroke-linejoin="round" stroke-miterlimit="10" d="
	M44.46,144.45c2.34,0.11,6.931,1.899,7.12,7.55"/>
<path fill="#E10073" d="M45.82,148.34c1.01,0,1.82,0.811,1.82,1.811s-0.811,1.811-1.82,1.811c-1,0-1.82-0.811-1.82-1.811
	S44.82,148.34,45.82,148.34z"/>
<path fill="#FFFFFF" stroke="#E20074" stroke-width="2" stroke-linecap="round" stroke-linejoin="round" stroke-miterlimit="10" d="
	M118.609,143.82c6.461,0,11.69,5.24,11.69,11.688c0,6.461-5.229,11.7-11.69,11.7c-6.459,0-11.689-5.239-11.689-11.7
	C106.92,149.061,112.15,143.82,118.609,143.82z"/>
<polygon fill="#E20074" points="115.84,149.9 115.84,161.43 124.48,155.6 "/>
<g>
	
		<circle fill="none" stroke="#E20074" stroke-linecap="round" stroke-linejoin="round" stroke-miterlimit="10" cx="60.5" cy="41.5" r="10.5"/>
	<path fill="none" stroke="#E20074" stroke-linecap="round" stroke-linejoin="round" stroke-miterlimit="10" d="M53.54,41.5
		c0,6.141,3.11,10.5,6.96,10.5s6.96-5.9,6.96-10.5S64.35,31,60.5,31S53.54,35.359,53.54,41.5z"/>
	
		<line fill="none" stroke="#E20074" stroke-linecap="round" stroke-linejoin="round" stroke-miterlimit="10" x1="60.5" y1="31" x2="60.5" y2="52"/>
	
		<line fill="none" stroke="#E20074" stroke-linecap="round" stroke-linejoin="round" stroke-miterlimit="10" x1="71" y1="41.5" x2="50" y2="41.5"/>
	
		<line fill="none" stroke="#E20074" stroke-linecap="round" stroke-linejoin="round" stroke-miterlimit="10" x1="69.66" y1="36.359" x2="51.34" y2="36.359"/>
	
		<line fill="none" stroke="#E20074" stroke-linecap="round" stroke-linejoin="round" stroke-miterlimit="10" x1="69.66" y1="46.641" x2="51.34" y2="46.641"/>
</g>
</svg>
