<?xml version="1.0" encoding="utf-8"?>
<!-- Generator: Adobe Illustrator 16.0.4, SVG Export Plug-In . SVG Version: 6.00 Build 0)  -->
<svg version="1.2" baseProfile="tiny" id="Ebene_1" xmlns="http://www.w3.org/2000/svg" xmlns:xlink="http://www.w3.org/1999/xlink"
	 x="0px" y="0px" width="280px" height="200px" viewBox="0 0 280 200" xml:space="preserve">
<path fill="#FFFFFF" d="M88.19,139.84h5.84c0.75,0,1.36,0.6,1.36,1.35v2.201c0,0.75-0.61,1.351-1.36,1.351h-5.84
	c-0.75,0-1.36-0.601-1.36-1.351v-2.201C86.83,140.439,87.44,139.84,88.19,139.84z"/>
<path fill="#FFFFFF" d="M101.29,139.84h5.84c0.75,0,1.36,0.6,1.36,1.35v2.201c0,0.75-0.61,1.351-1.36,1.351h-5.84
	c-0.75,0-1.36-0.601-1.36-1.351v-2.201C99.93,140.439,100.54,139.84,101.29,139.84z"/>
<path fill="#FFFFFF" d="M113.94,139.84h5.84c0.75,0,1.36,0.6,1.36,1.35v2.201c0,0.75-0.61,1.351-1.36,1.351h-5.84
	c-0.75,0-1.36-0.601-1.36-1.351v-2.201C112.58,140.439,113.19,139.84,113.94,139.84z"/>
<path fill="#FFFFFF" d="M88.19,147.971h5.84c0.75,0,1.36,0.609,1.36,1.35v2.199c0,0.75-0.61,1.36-1.36,1.36h-5.84
	c-0.75,0-1.36-0.61-1.36-1.36v-2.199C86.83,148.58,87.44,147.971,88.19,147.971z"/>
<path fill="#FFFFFF" d="M101.29,147.971h5.84c0.75,0,1.36,0.609,1.36,1.35v2.199c0,0.75-0.61,1.36-1.36,1.36h-5.84
	c-0.75,0-1.36-0.61-1.36-1.36v-2.199C99.93,148.58,100.54,147.971,101.29,147.971z"/>
<path fill="#FFFFFF" d="M113.94,147.971h5.84c0.75,0,1.36,0.609,1.36,1.35v2.199c0,0.75-0.61,1.36-1.36,1.36h-5.84
	c-0.75,0-1.36-0.61-1.36-1.36v-2.199C112.58,148.58,113.19,147.971,113.94,147.971z"/>
<path fill="#E20074" d="M231.82,46.73c0-2.23-1.83-4.03-4.08-4.03h-58.801c-2.26,0-4.09,1.8-4.09,4.03V141
	c0,2.221,1.83,4.02,4.09,4.02h58.801c2.25,0,4.08-1.799,4.08-4.02V46.73z M198.32,161.811c3.14,0,5.68-2.5,5.68-5.601
	c0-3.09-2.54-5.601-5.68-5.601c-3.141,0-5.68,2.511-5.68,5.601C192.641,159.311,195.18,161.811,198.32,161.811z M231.141,166.05
	H164.85c-4.129,0-7.49-3.31-7.49-7.38V41.36c0-4.08,3.361-7.38,7.49-7.38h66.291c4.139,0,7.489,3.3,7.489,7.38v117.31
	C238.63,162.74,235.279,166.05,231.141,166.05z"/>
<path fill="none" stroke="#E20074" stroke-width="2" stroke-linecap="round" stroke-linejoin="round" stroke-miterlimit="10" d="
	M45.18,159.34c-9.91-0.18-24.97-21.73-0.1-31.58"/>
<path fill="#E20074" stroke="#FFFFFF" stroke-width="2" stroke-linecap="round" stroke-linejoin="round" stroke-miterlimit="10" d="
	M48.36,94.37h74.55c2.25,0,4.07,1.82,4.07,4.07v59.24c0,2.25-1.82,4.07-4.07,4.07H48.36c-2.24,0-4.06-1.82-4.06-4.07V98.44
	C44.3,96.19,46.12,94.37,48.36,94.37z"/>
<path fill="#E20074" stroke="#FFFFFF" stroke-width="2" stroke-linecap="round" stroke-linejoin="round" stroke-miterlimit="10" d="
	M52.8,87.26c0,0,5-4.51,12.63-4.51c8.82,0,13.02,4.51,13.02,4.51V152.4c0,0-4.35,3.84-12.76,3.84c-9.45,0-12.89-3.84-12.89-3.84
	V87.26z"/>
<path fill="#FFFFFF" d="M88.21,102.66h31.59c0.75,0,1.36,0.609,1.36,1.359V119.7c0,0.739-0.61,1.35-1.36,1.35H88.21
	c-0.75,0-1.36-0.61-1.36-1.35V104.02C86.85,103.27,87.46,102.66,88.21,102.66z"/>
<path fill="#FFFFFF" d="M88.19,124.57h5.84c0.75,0,1.36,0.609,1.36,1.359v2.199c0,0.74-0.61,1.352-1.36,1.352h-5.84
	c-0.75,0-1.36-0.61-1.36-1.352v-2.199C86.83,125.18,87.44,124.57,88.19,124.57z"/>
<path fill="#FFFFFF" d="M101.29,124.57h5.84c0.75,0,1.36,0.609,1.36,1.359v2.199c0,0.74-0.61,1.352-1.36,1.352h-5.84
	c-0.75,0-1.36-0.61-1.36-1.352v-2.199C99.93,125.18,100.54,124.57,101.29,124.57z"/>
<path fill="#FFFFFF" d="M113.94,124.57h5.84c0.75,0,1.36,0.609,1.36,1.359v2.199c0,0.74-0.61,1.352-1.36,1.352h-5.84
	c-0.75,0-1.36-0.61-1.36-1.352v-2.199C112.58,125.18,113.19,124.57,113.94,124.57z"/>
<path fill="#FFFFFF" d="M88.19,132.71h5.84c0.75,0,1.36,0.601,1.36,1.351v2.199c0,0.75-0.61,1.35-1.36,1.35h-5.84
	c-0.75,0-1.36-0.6-1.36-1.35v-2.199C86.83,133.311,87.44,132.71,88.19,132.71z"/>
<path fill="#FFFFFF" d="M101.29,132.71h5.84c0.75,0,1.36,0.601,1.36,1.351v2.199c0,0.75-0.61,1.35-1.36,1.35h-5.84
	c-0.75,0-1.36-0.6-1.36-1.35v-2.199C99.93,133.311,100.54,132.71,101.29,132.71z"/>
<path fill="#FFFFFF" d="M113.94,132.71h5.84c0.75,0,1.36,0.601,1.36,1.351v2.199c0,0.75-0.61,1.35-1.36,1.35h-5.84
	c-0.75,0-1.36-0.6-1.36-1.35v-2.199C112.58,133.311,113.19,132.71,113.94,132.71z"/>
<path fill="#FFFFFF" d="M88.19,140.84h5.84c0.75,0,1.36,0.6,1.36,1.35v2.201c0,0.75-0.61,1.351-1.36,1.351h-5.84
	c-0.75,0-1.36-0.601-1.36-1.351v-2.201C86.83,141.439,87.44,140.84,88.19,140.84z"/>
<path fill="#FFFFFF" d="M101.29,140.84h5.84c0.75,0,1.36,0.6,1.36,1.35v2.201c0,0.75-0.61,1.351-1.36,1.351h-5.84
	c-0.75,0-1.36-0.601-1.36-1.351v-2.201C99.93,141.439,100.54,140.84,101.29,140.84z"/>
<path fill="#FFFFFF" d="M113.94,140.84h5.84c0.75,0,1.36,0.6,1.36,1.35v2.201c0,0.75-0.61,1.351-1.36,1.351h-5.84
	c-0.75,0-1.36-0.601-1.36-1.351v-2.201C112.58,141.439,113.19,140.84,113.94,140.84z"/>
<path fill="#FFFFFF" d="M88.19,148.971h5.84c0.75,0,1.36,0.609,1.36,1.35v2.199c0,0.75-0.61,1.36-1.36,1.36h-5.84
	c-0.75,0-1.36-0.61-1.36-1.36v-2.199C86.83,149.58,87.44,148.971,88.19,148.971z"/>
<path fill="#FFFFFF" d="M101.29,148.971h5.84c0.75,0,1.36,0.609,1.36,1.35v2.199c0,0.75-0.61,1.36-1.36,1.36h-5.84
	c-0.75,0-1.36-0.61-1.36-1.36v-2.199C99.93,149.58,100.54,148.971,101.29,148.971z"/>
<path fill="#FFFFFF" d="M113.94,148.971h5.84c0.75,0,1.36,0.609,1.36,1.35v2.199c0,0.75-0.61,1.36-1.36,1.36h-5.84
	c-0.75,0-1.36-0.61-1.36-1.36v-2.199C112.58,149.58,113.19,148.971,113.94,148.971z"/>
</svg>
