<?xml version="1.0" encoding="utf-8"?>
<!-- Generator: Adobe Illustrator 16.0.4, SVG Export Plug-In . SVG Version: 6.00 Build 0)  -->
<svg version="1.2" baseProfile="tiny" id="Ebene_1" xmlns="http://www.w3.org/2000/svg" xmlns:xlink="http://www.w3.org/1999/xlink"
	 x="0px" y="0px" width="280px" height="200px" viewBox="0 0 280 200" xml:space="preserve">
<line fill="none" x1="64.7" y1="35.5" x2="62.6" y2="35.5"/>
<path fill="#418F99" d="M138.04,138.54c11.38,0,20.601,9.229,20.601,20.61c0,11.379-9.221,20.6-20.601,20.6s-20.61-9.221-20.61-20.6
	C117.43,147.77,126.66,138.54,138.04,138.54z"/>
<path fill="#418F99" d="M162.66,134.49h12.73c0.479,0,0.868,0.39,0.868,0.88v9.069c0,0.479-0.39,0.871-0.868,0.871h-12.73
	c-0.48,0-0.87-0.392-0.87-0.871v-9.069C161.79,134.88,162.18,134.49,162.66,134.49z"/>
<path fill="#E20074" d="M251.55,30.81h-90.36v121.68h90.36V30.81z M206.221,163.07c2.069,0,3.75-1.68,3.75-3.75
	s-1.681-3.75-3.75-3.75c-2.07,0-3.75,1.68-3.75,3.75S204.15,163.07,206.221,163.07z M257.471,167H154.67
	c-4.24,0-7.67-3.43-7.67-7.67V23.7c0-4.23,3.43-7.67,7.67-7.67h102.801c4.239,0,7.67,3.439,7.67,7.67v135.63
	C265.141,163.57,261.71,167,257.471,167z"/>
<path fill="#E20074" d="M73.06,108.68c0-1.52-1.25-2.75-2.78-2.75H30.19c-1.54,0-2.79,1.23-2.79,2.75v64.271
	c0,1.521,1.25,2.75,2.79,2.75h40.09c1.53,0,2.78-1.229,2.78-2.75V108.68z M50.22,187.15c2.14,0,3.87-1.711,3.87-3.82
	s-1.73-3.82-3.87-3.82c-2.14,0-3.88,1.711-3.88,3.82S48.08,187.15,50.22,187.15z M72.6,190.029H27.4c-2.82,0-5.11-2.25-5.11-5.029
	v-79.98c0-2.778,2.29-5.04,5.11-5.04h45.2c2.82,0,5.1,2.26,5.1,5.04V185C77.7,187.779,75.42,190.029,72.6,190.029z"/>
<polyline fill="#E20074" points="61.08,27.85 59.58,27.86 36.31,62.18 41.98,62.18 "/>
<polyline fill="#E20074" points="84.87,62.18 91.12,62.18 68.21,27.82 66.09,27.83 "/>
<polyline fill="#E20074" points="65.53,46 65.28,42.28 62.36,42.28 62.25,46 "/>
<polyline fill="#E20074" points="62.55,35.39 62.47,38.36 65.02,38.36 64.83,35.39 "/>
<path fill="#E20074" d="M62.7,30.45l-0.06,2.07h1.98l-0.07-2.04L62.7,30.45z M64.49,29.27l-0.07-1.4l-1.7,0.05l-0.03,1.36
	L64.49,29.27z M62.02,54.36l-0.22,7.82h4.8l-0.52-7.91L62.02,54.36z"/>
<path fill="#E20074" d="M111.27,25.76c0-2.93-2.38-5.31-5.31-5.31H22.18c-2.93,0-5.31,2.38-5.31,5.31v41.08
	c0,2.93,2.38,5.31,5.31,5.31h83.78c2.93,0,5.31-2.38,5.31-5.31V25.76z M57.42,81.89c0,2.93,2.38,5.31,5.31,5.31h2.85
	c2.94,0,5.31-2.38,5.31-5.31v-0.88c0-2.94-2.37-5.31-5.31-5.31h-2.85c-2.93,0-5.31,2.37-5.31,5.31V81.89z M110.74,89.86H17.58
	c-2.94,0-5.32-2.38-5.32-5.32V20.8c0-2.93,2.38-5.31,5.32-5.31h93.16c2.93,0,5.31,2.38,5.31,5.31v63.74
	C116.05,87.48,113.67,89.86,110.74,89.86z"/>
<path fill="#E20074" stroke="#FFFFFF" stroke-width="3" stroke-linecap="round" stroke-linejoin="round" stroke-miterlimit="10" d="
	M180.471,188.76H101.19c-2.41,0-4.36-1.949-4.36-4.359v-53.01c0-2.41,1.95-4.36,4.36-4.36h62.669v-3.06
	c0-2.41,1.951-4.361,4.361-4.361h1.788c2.41,0,4.36,1.951,4.36,4.361v3.06h6.102c2.398,0,4.35,1.95,4.35,4.36v53.01
	C184.82,186.811,182.87,188.76,180.471,188.76z"/>
<path fill="#FFFFFF" d="M138.04,138.54c11.38,0,20.601,9.229,20.601,20.61c0,11.379-9.221,20.6-20.601,20.6s-20.61-9.221-20.61-20.6
	C117.43,147.77,126.66,138.54,138.04,138.54z"/>
<path fill="#E20074" d="M138.04,148.15c6.069,0,11,4.92,11,11c0,6.069-4.931,10.99-11,10.99c-6.07,0-11-4.921-11-10.99
	C127.04,153.07,131.97,148.15,138.04,148.15z"/>
<path fill="#FFFFFF" d="M162.66,134.49h12.73c0.479,0,0.868,0.39,0.868,0.88v9.069c0,0.479-0.39,0.871-0.868,0.871h-12.73
	c-0.48,0-0.87-0.392-0.87-0.871v-9.069C161.79,134.88,162.18,134.49,162.66,134.49z"/>
</svg>
