<?xml version="1.0" encoding="utf-8"?>
<!-- Generator: Adobe Illustrator 16.0.4, SVG Export Plug-In . SVG Version: 6.00 Build 0)  -->
<svg version="1.2" baseProfile="tiny" id="Ebene_1" xmlns="http://www.w3.org/2000/svg" xmlns:xlink="http://www.w3.org/1999/xlink"
	 x="0px" y="0px" width="280px" height="200px" viewBox="0 0 280 200" xml:space="preserve">
<path fill="none" stroke="#E20074" stroke-width="4" stroke-linecap="round" stroke-linejoin="round" stroke-miterlimit="10" d="
	M107,101.5c0,18.92,15.33,34.25,34.25,34.25s34.25-15.33,34.25-34.25s-15.33-34.25-34.25-34.25S107,82.58,107,101.5z"/>
<path fill="none" stroke="#E20074" stroke-width="4" stroke-linecap="round" stroke-linejoin="round" stroke-miterlimit="10" d="
	M118.54,101.5c0,20.029,10.17,34.25,22.71,34.25s22.71-19.24,22.71-34.25s-10.17-34.25-22.71-34.25S118.54,81.47,118.54,101.5z"/>
<line fill="none" stroke="#E20074" stroke-width="4" stroke-linecap="round" stroke-linejoin="round" stroke-miterlimit="10" x1="141.25" y1="67.25" x2="141.25" y2="135.75"/>
<line fill="none" stroke="#E20074" stroke-width="4" stroke-linecap="round" stroke-linejoin="round" stroke-miterlimit="10" x1="175.5" y1="101.5" x2="107" y2="101.5"/>
<line fill="none" stroke="#E20074" stroke-width="4" stroke-linecap="round" stroke-linejoin="round" stroke-miterlimit="10" x1="171.12" y1="84.75" x2="111.38" y2="84.75"/>
<line fill="none" stroke="#E20074" stroke-width="4" stroke-linecap="round" stroke-linejoin="round" stroke-miterlimit="10" x1="171.12" y1="118.26" x2="111.38" y2="118.26"/>
<path fill="#E20074" d="M202.98,150.689l-0.09,0.431l-0.132,0.43l-0.17,0.431l-0.21,0.42l-0.25,0.41l-0.279,0.391l-0.209,0.26
	l-0.342,0.37l-7.67,7.562l-0.37,0.35l-0.39,0.3l-0.41,0.26l-0.41,0.229l-0.43,0.191l-0.432,0.148l-0.43,0.109l-0.43,0.08
	l-0.43,0.029l-0.43-0.01l-0.41-0.04l-0.41-0.09l-0.381-0.13l-0.369-0.16l-0.352-0.21l-0.22-0.171l-0.312-0.271l-8.81-8.909
	l-0.16-0.181l-0.13-0.199l-0.109-0.211l-0.08-0.21l-0.051-0.229l-0.02-0.221v-0.171l0.02-0.17l0.03-0.159l0.05-0.16l0.061-0.16
	l0.08-0.149l0.101-0.149l0.069-0.09l0.119-0.131l0.131-0.119l0.141-0.101l0.148-0.09l0.16-0.07l0.16-0.06l0.16-0.041l0.17-0.029
	l0.17-0.01l0.16,0.01l0.23,0.029l0.22,0.061l0.21,0.09l0.21,0.11l0.14,0.101l0.18,0.17l6.802,6.869l0.05,0.051l0.061,0.039
	l0.069,0.03l0.062,0.03l0.07,0.01l0.068,0.01h0.05l0.052-0.01h0.049l0.051-0.02l0.05-0.021l0.05-0.021l0.04-0.028l0.03-0.021
	l0.04-0.041l0.04-0.039l0.029-0.041l0.031-0.049l0.02-0.041l0.02-0.049l0.01-0.051l0.01-0.05v-0.06v-0.052l-0.01-0.069l-0.01-0.061
	l-0.029-0.068l-0.029-0.062l-0.04-0.05l-0.04-0.051L168.04,136.1l-0.13-0.148l-0.11-0.16l-0.09-0.17l-0.069-0.182l-0.051-0.188
	l-0.029-0.2l-0.021-0.199l0.01-0.199l0.021-0.211l0.051-0.199l0.061-0.211l0.079-0.199l0.101-0.2l0.111-0.2l0.139-0.188l0.101-0.12
	l0.16-0.182l0.18-0.159l0.19-0.149l0.189-0.119l0.199-0.109l0.2-0.09l0.21-0.07l0.21-0.061l0.2-0.029l0.21-0.021l0.198,0.012
	l0.201,0.02l0.189,0.04l0.189,0.06l0.181,0.08l0.159,0.1l0.111,0.08l0.148,0.132l11.689,11.829l0.061,0.05l0.061,0.041l0.061,0.039
	l0.07,0.021l0.068,0.021l0.07,0.02h0.068h0.08l0.07-0.01l0.08-0.01l0.08-0.021l0.07-0.029l0.08-0.039l0.07-0.041l0.068-0.049
	l0.05-0.041l0.062-0.061l0.06-0.061l0.06-0.069l0.041-0.07l0.049-0.069l0.031-0.08l0.029-0.069l0.02-0.08l0.012-0.08l0.01-0.069
	v-0.08l-0.01-0.069l-0.012-0.07l-0.028-0.069l-0.021-0.07l-0.041-0.061l-0.029-0.039l-0.051-0.051l-11.699-11.83l-0.131-0.148
	l-0.108-0.16l-0.09-0.17l-0.07-0.18l-0.05-0.191l-0.04-0.199l-0.011-0.199l0.011-0.201l0.021-0.209l0.041-0.201l0.068-0.209
	l0.08-0.2l0.102-0.199l0.108-0.2l0.142-0.189l0.1-0.119l0.16-0.18l0.18-0.16l0.189-0.142l0.189-0.13l0.2-0.109l0.198-0.09
	l0.211-0.07l0.209-0.061l0.201-0.029l0.209-0.021l0.201,0.011l0.199,0.02l0.189,0.041l0.191,0.06l0.17,0.08l0.17,0.101l0.108,0.08
	l0.142,0.129l20.34,20.562l0.05,0.05l0.06,0.04l0.061,0.029l0.07,0.03l0.061,0.011l0.068,0.01h0.051h0.051l0.05-0.01l0.04-0.021
	l0.051-0.021l0.051-0.02l0.039-0.029l0.029-0.021l0.04-0.029l0.03-0.039l0.029-0.041l0.029-0.051l0.02-0.039l0.021-0.051l0.012-0.05
	l0.01-0.051v-0.05v-0.051l-0.01-0.061l-0.012-0.069l-0.029-0.06l-0.029-0.061l-0.03-0.041l-0.05-0.06l-6.811-6.881l-0.16-0.189
	l-0.129-0.188l-0.102-0.211l-0.08-0.221l-0.05-0.22l-0.021-0.221v-0.17l0.021-0.171l0.028-0.159l0.052-0.17l0.062-0.149l0.078-0.148
	l0.092-0.15l0.08-0.09l0.118-0.131l0.132-0.119l0.139-0.11l0.149-0.08l0.15-0.069l0.159-0.061l0.171-0.04l0.159-0.03l0.17-0.01
	l0.171,0.01l0.22,0.03l0.221,0.06l0.221,0.091l0.199,0.11l0.149,0.101l0.181,0.159l8.811,8.91l0.27,0.31l0.23,0.341l0.189,0.36
	l0.149,0.379l0.108,0.391l0.07,0.41l0.03,0.42l-0.011,0.431L202.98,150.689z M205.63,162.311l-0.06,0.369l-0.1,0.36l-0.142,0.351
	l-0.17,0.351l-0.2,0.33l-0.238,0.31l-0.271,0.301l-0.301,0.271l-0.211,0.159l-0.33,0.211l-0.34,0.18l-0.358,0.141l-0.36,0.109
	l-0.369,0.07l-0.369,0.039h-0.381l-0.369-0.029l-0.371-0.061l-0.359-0.101l-0.359-0.13l-0.341-0.17l-0.33-0.2l-0.31-0.239
	l-0.301-0.271l-0.26-0.302l-0.16-0.198l-0.209-0.33l-0.182-0.34l-0.14-0.351l-0.101-0.371l-0.07-0.358l-0.041-0.382v-0.368
	l0.031-0.382l0.061-0.368l0.109-0.36l0.129-0.35l0.17-0.352l0.201-0.33l0.24-0.31l0.271-0.3l0.3-0.27l0.21-0.16l0.33-0.211
	l0.34-0.181l0.358-0.14l0.361-0.11l0.369-0.069l0.37-0.039h0.38l0.37,0.028l0.37,0.062l0.359,0.1l0.36,0.13l0.341,0.171l0.33,0.199
	l0.31,0.24l0.3,0.27l0.27,0.291l0.15,0.209l0.21,0.33l0.181,0.34l0.141,0.352l0.1,0.369l0.08,0.359l0.03,0.381v0.369L205.63,162.311
	z"/>
<path fill="#E20074" d="M84.81,40.74l-0.1,0.37l-0.12,0.35l-0.16,0.35l-0.2,0.34L84,42.47l-0.27,0.3l-0.29,0.27l-0.21,0.17
	l-0.32,0.22l-0.34,0.18l-0.35,0.15l-0.36,0.12l-0.37,0.08L81.12,44l-0.37,0.02L80.37,44L80,43.94l-0.36-0.09l-0.36-0.13l-0.35-0.15
	l-0.33-0.2l-0.32-0.23l-0.3-0.26l-0.28-0.29l-0.16-0.21l-0.21-0.32l-0.19-0.34l-0.15-0.35l-0.11-0.36l-0.08-0.36l-0.04-0.37
	l-0.01-0.38l0.02-0.37l0.06-0.37l0.09-0.37l0.13-0.36l0.16-0.35l0.2-0.33l0.23-0.32l0.26-0.3l0.3-0.28l0.2-0.16l0.32-0.22l0.34-0.18
	l0.35-0.15l0.36-0.12l0.37-0.08l0.37-0.05l0.38-0.01l0.37,0.02l0.37,0.06L82,36.05l0.36,0.12l0.34,0.16l0.34,0.19l0.32,0.23
	l0.3,0.27l0.27,0.29l0.16,0.2l0.22,0.33l0.18,0.33l0.15,0.35l0.11,0.36l0.08,0.37l0.05,0.37l0.01,0.37l-0.02,0.38L84.81,40.74z
	 M115.46,66.33l-0.02,0.21l-0.04,0.21l-0.06,0.2l-0.07,0.21l-0.1,0.2l-0.11,0.2l-0.13,0.19l-0.1,0.13l-0.16,0.18l-0.18,0.16
	l-0.18,0.15l-0.19,0.13l-0.2,0.12l-0.2,0.09l-0.2,0.08l-0.21,0.06l-0.2,0.04l-0.21,0.02h-0.2l-0.2-0.02l-0.19-0.04l-0.19-0.05
	l-0.18-0.08l-0.17-0.1l-0.1-0.07l-0.15-0.13L99.56,56.85L99.5,56.8l-0.06-0.04l-0.06-0.03l-0.07-0.03l-0.07-0.01l-0.07-0.02h-0.08
	h-0.07l-0.08,0.01l-0.07,0.02l-0.08,0.02l-0.07,0.03l-0.08,0.04l-0.07,0.04l-0.07,0.06l-0.04,0.03l-0.07,0.06l-0.06,0.07l-0.05,0.07
	l-0.05,0.07l-0.04,0.08l-0.03,0.07l-0.02,0.08l-0.02,0.07l-0.01,0.08l-0.01,0.08v0.07l0.01,0.07l0.02,0.07l0.02,0.07L98.18,58
	l0.04,0.06l0.03,0.04l0.05,0.05l11.95,11.57l0.14,0.15l0.11,0.16l0.1,0.16l0.07,0.18l0.06,0.19l0.04,0.2l0.02,0.19l-0.01,0.21
	l-0.02,0.2l-0.03,0.21l-0.06,0.21l-0.08,0.2l-0.09,0.21l-0.12,0.2l-0.13,0.19l-0.09,0.12L110,72.88l-0.18,0.17l-0.18,0.15
	l-0.19,0.13l-0.2,0.11l-0.2,0.1l-0.21,0.07l-0.2,0.06l-0.21,0.04l-0.2,0.02h-0.2l-0.2-0.02l-0.2-0.03l-0.18-0.06l-0.18-0.08
	l-0.17-0.09l-0.11-0.08l-0.15-0.13l-20.78-20.1L86,53.09l-0.06-0.04l-0.06-0.03L85.82,53l-0.07-0.02h-0.07h-0.05h-0.05l-0.04,0.01
	l-0.05,0.02l-0.05,0.021l-0.04,0.02l-0.05,0.03l-0.02,0.02l-0.04,0.04l-0.04,0.04l-0.03,0.04l-0.02,0.04l-0.02,0.05l-0.02,0.05
	l-0.01,0.05l-0.01,0.05v0.05v0.05l0.01,0.06l0.02,0.07l0.03,0.06l0.03,0.06l0.03,0.04l0.05,0.05l6.96,6.74l0.16,0.18l0.14,0.19
	l0.11,0.21l0.08,0.21l0.06,0.22l0.02,0.22l0.01,0.17l-0.02,0.17l-0.03,0.17l-0.04,0.16L92.7,62.7l-0.08,0.15L92.53,63l-0.07,0.09
	l-0.11,0.14l-0.14,0.12l-0.13,0.1l-0.15,0.1l-0.15,0.07l-0.16,0.06l-0.17,0.05l-0.16,0.02l-0.17,0.02h-0.17l-0.22-0.03l-0.22-0.06
	l-0.22-0.08l-0.21-0.11l-0.14-0.1l-0.19-0.15l-9-8.71l-0.28-0.31l-0.24-0.33l-0.2-0.36l-0.16-0.37l-0.12-0.39l-0.07-0.41l-0.04-0.42
	v-0.42l0.04-0.44l0.08-0.43l0.12-0.43l0.16-0.43l0.2-0.43l0.24-0.41l0.27-0.41l0.21-0.26l0.33-0.37l7.5-7.74l0.36-0.35l0.39-0.31
	l0.39-0.27L90.35,39l0.42-0.2l0.42-0.16l0.43-0.12l0.44-0.08l0.43-0.04l0.42-0.01l0.42,0.04l0.4,0.08l0.39,0.12l0.38,0.15l0.35,0.21
	l0.22,0.15l0.32,0.27l9,8.71l0.17,0.18l0.13,0.2l0.11,0.2l0.08,0.22l0.06,0.22l0.02,0.22l0.01,0.17l-0.02,0.17l-0.02,0.16
	l-0.05,0.17l-0.06,0.16l-0.07,0.15l-0.1,0.15l-0.07,0.09l-0.11,0.13l-0.13,0.13l-0.14,0.1l-0.15,0.09l-0.15,0.08l-0.16,0.06
	l-0.16,0.04l-0.17,0.03l-0.17,0.01h-0.17l-0.22-0.02l-0.22-0.06l-0.22-0.08l-0.2-0.11l-0.15-0.1l-0.19-0.16L94.93,44l-0.06-0.04
	l-0.06-0.04l-0.06-0.04l-0.07-0.02l-0.07-0.01l-0.07-0.01h-0.05l-0.05,0.01l-0.05,0.01l-0.05,0.01l-0.05,0.02l-0.04,0.03l-0.05,0.03
	l-0.03,0.02l-0.04,0.04l-0.03,0.04l-0.03,0.04l-0.03,0.05l-0.02,0.05L94,44.23l-0.01,0.05l-0.01,0.06v0.05v0.05l0.01,0.07l0.02,0.07
	l0.03,0.06l0.04,0.06l0.03,0.05l0.05,0.05l20.77,20.1l0.13,0.14l0.12,0.16l0.09,0.17l0.08,0.18l0.05,0.19l0.04,0.19l0.02,0.2V66.33z
	"/>
<path fill="#E20074" d="M79.47,156.9l0.37-0.03l0.38-0.011l0.37,0.041l0.37,0.06l0.36,0.101l0.36,0.141l0.34,0.17l0.33,0.199
	l0.32,0.24l0.29,0.271l0.27,0.3l0.16,0.21l0.21,0.33l0.18,0.34l0.14,0.36l0.11,0.359l0.07,0.369l0.04,0.371l0.01,0.379l-0.03,0.371
	l-0.07,0.369l-0.09,0.36l-0.14,0.36l-0.16,0.34l-0.21,0.33l-0.23,0.318l-0.27,0.29l-0.3,0.271l-0.21,0.16l-0.33,0.211l-0.34,0.17
	l-0.35,0.14l-0.36,0.11l-0.37,0.07l-0.37,0.038h-0.38l-0.37-0.028l-0.37-0.07l-0.36-0.1l-0.36-0.142l-0.34-0.17l-0.33-0.2
	l-0.32-0.238l-0.29-0.271l-0.27-0.3l-0.16-0.212l-0.21-0.328l-0.18-0.342l-0.14-0.35l-0.11-0.369l-0.07-0.371l-0.04-0.369
	l-0.01-0.371l0.03-0.379l0.07-0.371l0.1-0.358l0.13-0.358l0.17-0.341l0.2-0.329l0.23-0.312l0.27-0.302l0.3-0.27l0.21-0.16
	l0.33-0.199l0.34-0.18l0.35-0.141l0.36-0.109L79.47,156.9z M114.46,134.46l-0.02,0.2l-0.05,0.189l-0.06,0.189l-0.08,0.181
	l-0.1,0.159l-0.07,0.11l-0.14,0.149l-20.56,20.351l-0.05,0.05l-0.04,0.061l-0.03,0.061l-0.02,0.061l-0.02,0.069l-0.01,0.069v0.051
	l0.01,0.05l0.01,0.04l0.01,0.05l0.02,0.05l0.02,0.041l0.03,0.049l0.02,0.031l0.04,0.029l0.04,0.04l0.04,0.03l0.04,0.029l0.05,0.021
	l0.04,0.021l0.05,0.01l0.05,0.011h0.05h0.05l0.07-0.011l0.06-0.01l0.06-0.031l0.07-0.028l0.04-0.03l0.05-0.05l6.89-6.812l0.18-0.16
	l0.2-0.139l0.21-0.101l0.21-0.08l0.22-0.05l0.23-0.02h0.17l0.16,0.02l0.17,0.029l0.16,0.051l0.16,0.06l0.15,0.08l0.15,0.101
	l0.09,0.069l0.13,0.12l0.12,0.13l0.1,0.14l0.09,0.15l0.07,0.16l0.06,0.16l0.04,0.16l0.02,0.17l0.01,0.17v0.16l-0.04,0.229
	l-0.05,0.221l-0.09,0.211l-0.11,0.209l-0.11,0.141l-0.16,0.18l-8.91,8.82l-0.31,0.27L94,161.83l-0.36,0.199l-0.37,0.15l-0.4,0.1
	l-0.41,0.07l-0.41,0.029l-0.43-0.01l-0.43-0.051l-0.43-0.09l-0.43-0.131l-0.43-0.17l-0.42-0.209l-0.41-0.24l-0.4-0.291l-0.25-0.209
	l-0.37-0.34l-7.57-7.67l-0.34-0.371l-0.3-0.398l-0.27-0.4l-0.23-0.42l-0.19-0.42l-0.15-0.43l-0.11-0.439l-0.07-0.43l-0.03-0.43
	V148.8l0.05-0.409l0.09-0.399l0.12-0.392l0.17-0.369l0.21-0.351l0.16-0.22l0.28-0.311l8.91-8.82l0.18-0.159l0.2-0.13l0.2-0.11
	l0.22-0.069l0.22-0.051l0.23-0.02h0.16l0.17,0.01l0.17,0.04l0.16,0.04l0.16,0.07l0.15,0.08l0.14,0.09l0.1,0.07l0.13,0.118
	l0.12,0.142l0.1,0.14l0.09,0.149l0.07,0.149l0.05,0.16l0.05,0.17l0.02,0.16l0.01,0.17l-0.01,0.17l-0.03,0.222l-0.06,0.219
	l-0.08,0.221l-0.12,0.199l-0.1,0.149l-0.16,0.181l-6.87,6.801l-0.05,0.05l-0.04,0.06l-0.04,0.07l-0.02,0.061l-0.02,0.07v0.069v0.05
	v0.051l0.01,0.049l0.01,0.052l0.02,0.05l0.03,0.05l0.03,0.04l0.02,0.03l0.03,0.04l0.04,0.04l0.05,0.028l0.04,0.03l0.05,0.021
	l0.05,0.021l0.05,0.011l0.05,0.01h0.05h0.05l0.07-0.01l0.07-0.011l0.06-0.028l0.07-0.031l0.04-0.029l0.06-0.05l20.55-20.341
	l0.15-0.129l0.16-0.11l0.17-0.091l0.18-0.069l0.19-0.06l0.19-0.03l0.2-0.011h0.21l0.2,0.031l0.21,0.038l0.2,0.062l0.21,0.08l0.2,0.1
	l0.19,0.12l0.19,0.14l0.13,0.1l0.17,0.16l0.17,0.182l0.14,0.189l0.13,0.189l0.11,0.2l0.09,0.2l0.07,0.209l0.05,0.211l0.04,0.199
	l0.01,0.211v0.198l-0.02,0.2l-0.04,0.189l-0.07,0.189l-0.08,0.17l-0.1,0.17l-0.07,0.11l-0.14,0.14l-11.83,11.711l-0.05,0.061
	l-0.04,0.06l-0.03,0.062l-0.03,0.07l-0.02,0.06l-0.01,0.08l-0.01,0.069v0.08l0.01,0.069l0.02,0.08l0.02,0.069l0.03,0.08l0.03,0.07
	l0.05,0.079l0.05,0.07l0.03,0.04l0.06,0.07l0.07,0.06l0.06,0.06l0.08,0.041l0.07,0.039l0.07,0.041L97.93,144l0.08,0.02l0.07,0.011
	l0.08,0.011h0.07l0.07-0.011l0.08-0.021l0.06-0.02l0.07-0.03l0.06-0.03l0.04-0.029l0.06-0.051l11.83-11.709l0.15-0.131l0.16-0.109
	l0.17-0.09l0.18-0.069l0.19-0.052l0.19-0.039l0.2-0.01l0.21,0.01l0.2,0.021l0.21,0.04l0.2,0.069l0.21,0.079l0.2,0.102l0.19,0.109
	l0.19,0.141l0.13,0.102l0.17,0.16l0.17,0.18l0.14,0.188l0.13,0.188l0.11,0.201l0.09,0.209l0.07,0.201l0.05,0.209l0.04,0.2l0.01,0.21
	V134.46z"/>
<path fill="#E20074" d="M202.05,48.41l0.31,0.38l0.281,0.4l0.239,0.42l0.19,0.42l0.16,0.42l0.129,0.44l0.08,0.43l0.041,0.43v0.42
	l-0.03,0.42l-0.08,0.4l-0.12,0.39l-0.16,0.38l-0.199,0.35l-0.16,0.23l-0.271,0.31l-8.71,9.01l-0.18,0.17l-0.19,0.13l-0.21,0.11
	l-0.21,0.08l-0.22,0.06l-0.23,0.03h-0.16l-0.17-0.021l-0.17-0.02l-0.16-0.05l-0.16-0.06l-0.148-0.07l-0.148-0.1l-0.102-0.07
	l-0.13-0.11l-0.12-0.13l-0.109-0.14l-0.091-0.15l-0.069-0.15l-0.061-0.16l-0.05-0.16l-0.03-0.17l-0.01-0.17v-0.17l0.029-0.22
	l0.051-0.22l0.09-0.22l0.102-0.2l0.1-0.15l0.16-0.19l6.72-6.95l0.05-0.05l0.04-0.06l0.03-0.07l0.02-0.07l0.021-0.06v-0.07v-0.05
	V53.7l-0.011-0.05L198,53.6l-0.02-0.04l-0.021-0.05l-0.029-0.04l-0.021-0.03l-0.04-0.04l-0.04-0.04l-0.052-0.03l-0.038-0.03
	l-0.052-0.02l-0.049-0.021l-0.051-0.01h-0.05l-0.05-0.01l-0.051,0.01l-0.069,0.01l-0.07,0.01l-0.069,0.03l-0.061,0.04l-0.04,0.03
	l-0.06,0.05l-20.09,20.79l-0.15,0.13l-0.16,0.12l-0.17,0.09l-0.17,0.08l-0.189,0.05l-0.201,0.04l-0.198,0.021h-0.2l-0.2-0.021
	l-0.21-0.04l-0.21-0.06l-0.21-0.08l-0.2-0.09l-0.198-0.11l-0.19-0.14L174,74.11l-0.18-0.16l-0.17-0.18l-0.15-0.18l-0.13-0.19
	l-0.11-0.2l-0.1-0.2l-0.07-0.2l-0.061-0.21l-0.039-0.21l-0.02-0.2v-0.2l0.01-0.2l0.039-0.2l0.061-0.18l0.07-0.18l0.1-0.17l0.08-0.11
	l0.13-0.15l11.56-11.97l0.051-0.05l0.039-0.06l0.041-0.07l0.021-0.06l0.021-0.07l0.011-0.07v-0.08v-0.07l-0.011-0.08l-0.01-0.08
	l-0.029-0.07l-0.03-0.08l-0.04-0.07l-0.04-0.07l-0.05-0.07l-0.04-0.05l-0.06-0.06l-0.07-0.06l-0.07-0.05l-0.07-0.05l-0.07-0.04
	l-0.079-0.03l-0.069-0.03l-0.08-0.02l-0.08-0.01h-0.068h-0.08l-0.07,0.01l-0.07,0.01l-0.07,0.03l-0.06,0.03l-0.06,0.03l-0.041,0.03
	l-0.059,0.05l-11.57,11.97l-0.141,0.13l-0.16,0.12l-0.17,0.09l-0.181,0.08l-0.188,0.06l-0.19,0.03l-0.2,0.02h-0.199l-0.211-0.02
	L170.3,70l-0.2-0.06l-0.209-0.07l-0.201-0.1l-0.198-0.11l-0.19-0.13l-0.13-0.1l-0.18-0.16l-0.16-0.18l-0.149-0.18l-0.131-0.19
	l-0.119-0.2l-0.091-0.2l-0.079-0.2l-0.061-0.21l-0.04-0.2l-0.021-0.21v-0.2l0.021-0.2l0.04-0.19l0.05-0.19l0.08-0.18l0.101-0.17
	l0.069-0.11l0.13-0.15l20.11-20.8l0.05-0.05l0.029-0.06l0.029-0.06l0.03-0.07l0.011-0.06l0.01-0.07v-0.05l-0.01-0.05l-0.011-0.05
	l-0.01-0.05l-0.021-0.04l-0.029-0.05l-0.03-0.04l-0.021-0.03l-0.029-0.04l-0.04-0.03l-0.04-0.03l-0.051-0.03l-0.049-0.02
	l-0.041-0.01l-0.049-0.01l-0.052-0.01h-0.05h-0.051l-0.069,0.01l-0.062,0.02l-0.06,0.02l-0.06,0.04l-0.051,0.03l-0.049,0.05
	l-6.73,6.96l-0.18,0.16l-0.201,0.14l-0.199,0.11l-0.21,0.08l-0.229,0.06L180,52.1l-0.17,0.01l-0.17-0.02l-0.16-0.03l-0.16-0.04
	l-0.16-0.06l-0.16-0.08l-0.14-0.09l-0.101-0.07l-0.129-0.11l-0.121-0.13l-0.109-0.14l-0.09-0.15l-0.08-0.15l-0.061-0.16l-0.039-0.16
	l-0.03-0.17l-0.011-0.17v-0.17l0.031-0.22l0.049-0.22l0.08-0.22l0.109-0.21l0.102-0.14l0.16-0.19L187.35,40l0.312-0.28l0.33-0.24
	l0.35-0.2l0.382-0.16l0.389-0.11l0.41-0.08l0.41-0.04h0.43l0.431,0.05l0.431,0.08l0.439,0.12l0.43,0.16l0.42,0.19l0.42,0.24
	l0.4,0.27l0.26,0.21l0.381,0.34l7.729,7.49L202.05,48.41z M205.98,40.52l-0.062,0.37l-0.09,0.36l-0.13,0.36l-0.16,0.35l-0.189,0.33
	l-0.229,0.32l-0.261,0.3l-0.289,0.28l-0.211,0.16l-0.319,0.22l-0.34,0.18l-0.351,0.15l-0.359,0.11l-0.36,0.08l-0.38,0.04l-0.37,0.01
	l-0.37-0.02l-0.369-0.06l-0.371-0.09l-0.358-0.13l-0.351-0.16l-0.33-0.2l-0.319-0.23l-0.302-0.26l-0.278-0.3l-0.16-0.2l-0.22-0.33
	l-0.182-0.33l-0.148-0.35L198,41.11l-0.08-0.36l-0.05-0.38L197.859,40l0.021-0.37l0.05-0.38l0.1-0.36l0.121-0.36l0.16-0.35
	l0.189-0.33l0.23-0.32l0.27-0.3l0.29-0.27l0.2-0.17l0.33-0.21l0.33-0.19l0.35-0.14l0.359-0.12l0.371-0.08l0.369-0.04l0.371-0.01
	l0.379,0.02l0.371,0.06l0.368,0.09l0.351,0.13l0.351,0.16l0.34,0.2l0.32,0.23l0.3,0.26l0.27,0.3l0.17,0.2l0.222,0.33l0.18,0.33
	l0.15,0.36l0.118,0.36l0.08,0.36l0.041,0.38l0.021,0.37L205.98,40.52z"/>
<path fill="#E20074" d="M221.2,107.16l-0.06,0.5l-0.102,0.47l-0.13,0.45l-0.171,0.439l-0.189,0.41l-0.229,0.391l-0.26,0.35
	l-0.281,0.33l-0.299,0.3l-0.33,0.261l-0.34,0.22l-0.371,0.181l-0.379,0.148l-0.392,0.102l-0.271,0.04l-0.42,0.021l-12.529-0.069
	l-0.24-0.021l-0.229-0.039l-0.222-0.07l-0.21-0.1l-0.189-0.121l-0.18-0.149l-0.109-0.12l-0.11-0.13l-0.09-0.14l-0.091-0.142
	l-0.059-0.16l-0.052-0.159l-0.04-0.17l-0.01-0.119l-0.012-0.182l0.012-0.18l0.029-0.171l0.039-0.171l0.062-0.158l0.069-0.15
	l0.091-0.14l0.1-0.142l0.11-0.129l0.12-0.11l0.18-0.14l0.2-0.11l0.21-0.091l0.229-0.06l0.17-0.03l0.25-0.02l9.66,0.061l0.069-0.011
	l0.069-0.01l0.07-0.021l0.069-0.029l0.062-0.041l0.049-0.039l0.041-0.04l0.029-0.04l0.029-0.04l0.021-0.04l0.029-0.051l0.01-0.049
	l0.011-0.051l0.01-0.039v-0.052v-0.062l-0.01-0.049l-0.011-0.051l-0.021-0.05l-0.021-0.05l-0.029-0.04l-0.03-0.05l-0.028-0.04
	l-0.041-0.03l-0.05-0.04l-0.061-0.04l-0.07-0.029l-0.069-0.021l-0.05-0.011h-0.069l-28.9-0.159l-0.2-0.021l-0.2-0.029l-0.18-0.062
	l-0.18-0.08l-0.17-0.09l-0.16-0.119l-0.15-0.131l-0.14-0.149l-0.13-0.16l-0.11-0.18l-0.11-0.189l-0.08-0.2l-0.068-0.21l-0.061-0.221
	l-0.041-0.229l-0.01-0.159l-0.01-0.24l0.01-0.239l0.03-0.23l0.05-0.229l0.061-0.22l0.08-0.211l0.09-0.189l0.109-0.189l0.12-0.17
	l0.14-0.15l0.142-0.141l0.16-0.13l0.159-0.11l0.181-0.08l0.18-0.068l0.19-0.05l0.13-0.021l0.198-0.011l16.632,0.09h0.08l0.069-0.01
	l0.069-0.021l0.06-0.029l0.07-0.04l0.061-0.04l0.051-0.051l0.061-0.049l0.041-0.062l0.049-0.062l0.041-0.068l0.028-0.08l0.03-0.08
	l0.021-0.08l0.01-0.08l0.01-0.061v-0.09v-0.09l-0.01-0.08l-0.021-0.091l-0.021-0.079l-0.028-0.08l-0.03-0.07l-0.039-0.07
	l-0.039-0.061l-0.052-0.06l-0.062-0.05l-0.049-0.05l-0.061-0.04l-0.07-0.03l-0.06-0.03l-0.07-0.02H202l-0.07-0.01l-16.64-0.09
	l-0.2-0.01l-0.189-0.04l-0.189-0.06l-0.182-0.07l-0.17-0.1l-0.158-0.11l-0.15-0.14l-0.14-0.14l-0.132-0.17l-0.108-0.17l-0.101-0.19
	l-0.09-0.2l-0.069-0.22l-0.062-0.22l-0.039-0.23l-0.011-0.15l-0.01-0.24l0.01-0.25l0.03-0.23l0.05-0.23l0.06-0.21l0.08-0.21
	l0.102-0.2l0.102-0.18l0.129-0.17l0.131-0.16l0.148-0.14l0.148-0.13l0.172-0.1l0.17-0.09l0.18-0.07l0.19-0.05l0.13-0.02l0.199-0.01
	l28.921,0.16h0.069l0.069-0.01l0.06-0.02l0.07-0.03l0.051-0.04l0.061-0.04l0.029-0.03l0.029-0.04l0.03-0.04l0.03-0.05l0.02-0.04
	l0.01-0.05l0.01-0.05l0.012-0.03v-0.06v-0.05l-0.012-0.05l-0.01-0.05l-0.02-0.05l-0.02-0.04l-0.021-0.05l-0.029-0.04l-0.039-0.04
	l-0.031-0.03l-0.049-0.04L214.5,94.4l-0.07-0.03l-0.06-0.02l-0.05-0.01l-0.08-0.01l-9.68-0.05l-0.24-0.021l-0.23-0.04l-0.22-0.07
	l-0.21-0.1l-0.189-0.12l-0.181-0.15l-0.11-0.12l-0.109-0.13l-0.1-0.14l-0.08-0.15l-0.061-0.15l-0.051-0.17l-0.039-0.17l-0.01-0.11
	l-0.01-0.18l0.01-0.18l0.02-0.17l0.05-0.17l0.06-0.16l0.07-0.15l0.09-0.15l0.102-0.13l0.109-0.13l0.119-0.11l0.18-0.14l0.201-0.11
	l0.209-0.09l0.23-0.06l0.17-0.03l0.25-0.02l12.52,0.07l0.42,0.03l0.4,0.07l0.391,0.12l0.369,0.16l0.36,0.2l0.33,0.24l0.32,0.28
	l0.29,0.31l0.27,0.34l0.24,0.37l0.221,0.4l0.18,0.42l0.149,0.44l0.11,0.47l0.09,0.48l0.029,0.33l0.021,0.5l-0.069,10.77
	L221.2,107.16z M231.17,101.74l-0.029,0.26l-0.08,0.38l-0.121,0.37l-0.148,0.35l-0.182,0.33l-0.209,0.312l-0.239,0.289l-0.261,0.271
	l-0.279,0.25l-0.311,0.21l-0.33,0.19l-0.34,0.158l-0.361,0.121l-0.379,0.09l-0.391,0.061l-0.4,0.012l-0.389-0.021l-0.261-0.03
	l-0.38-0.09l-0.37-0.108l-0.351-0.15l-0.33-0.19l-0.309-0.21l-0.291-0.23l-0.261-0.27l-0.25-0.279l-0.21-0.311l-0.189-0.33
	l-0.149-0.35l-0.13-0.36l-0.09-0.38l-0.051-0.391l-0.021-0.399l0.028-0.399l0.031-0.261l0.08-0.38l0.119-0.37l0.15-0.35l0.18-0.33
	l0.21-0.32l0.24-0.29l0.26-0.27l0.28-0.24l0.311-0.22l0.329-0.18l0.341-0.16L226,97.39l0.38-0.09l0.39-0.05l0.4-0.02l0.391,0.02
	l0.26,0.04l0.381,0.08l0.369,0.12l0.351,0.15l0.33,0.18l0.312,0.21l0.289,0.24l0.26,0.26l0.25,0.29l0.211,0.31l0.189,0.33
	l0.149,0.34l0.13,0.37l0.09,0.37l0.051,0.39l0.021,0.41L231.17,101.74z"/>
<path fill="#E20074" d="M59.59,101.15l-0.07,0.39l-0.11,0.37l-0.14,0.35l-0.18,0.34l-0.2,0.312l-0.23,0.3l-0.25,0.271l-0.28,0.25
	l-0.31,0.229l-0.32,0.189l-0.34,0.17l-0.36,0.131l-0.37,0.1l-0.39,0.061l-0.4,0.031l-0.4-0.021l-0.26-0.03l-0.38-0.069l-0.36-0.109
	l-0.36-0.141l-0.33-0.181l-0.32-0.198l-0.29-0.23l-0.27-0.26l-0.25-0.28l-0.22-0.3l-0.2-0.33l-0.16-0.34l-0.13-0.36l-0.1-0.38
	l-0.06-0.391l-0.03-0.399l0.01-0.4l0.03-0.26l0.08-0.38l0.11-0.37l0.14-0.36l0.17-0.33l0.21-0.32l0.22-0.3l0.26-0.27l0.28-0.25
	l0.3-0.22l0.32-0.2L54,96.8l0.35-0.14l0.38-0.09l0.38-0.07l0.4-0.02l0.4,0.01l0.26,0.03l0.38,0.07l0.37,0.11l0.35,0.15l0.34,0.17
	l0.31,0.2l0.3,0.23l0.27,0.26l0.25,0.28l0.22,0.31l0.19,0.32l0.17,0.34l0.13,0.36l0.1,0.38l0.06,0.39l0.02,0.4l-0.01,0.4
	L59.59,101.15z M99.49,103.45l-0.02,0.239l-0.04,0.229l-0.06,0.222l-0.08,0.209l-0.09,0.189l-0.1,0.189l-0.12,0.17l-0.13,0.16
	l-0.14,0.149l-0.16,0.12l-0.16,0.12l-0.17,0.09l-0.18,0.069l-0.19,0.051l-0.13,0.02l-0.2,0.021l-28.91,0.479h-0.07l-0.07,0.021
	l-0.07,0.021l-0.06,0.028l-0.06,0.04l-0.05,0.04l-0.03,0.028l-0.03,0.041l-0.03,0.051l-0.02,0.04l-0.02,0.05l-0.02,0.04l-0.01,0.062
	v0.028v0.052v0.049l0.01,0.061l0.01,0.05l0.02,0.04l0.02,0.051l0.03,0.039l0.03,0.04l0.03,0.04l0.04,0.03l0.05,0.04l0.06,0.029
	l0.06,0.031l0.07,0.02l0.05,0.01h0.07l9.69-0.16l0.24,0.01l0.23,0.041L79,107.21l0.21,0.09l0.2,0.12l0.18,0.141l0.12,0.119
	l0.11,0.12l0.09,0.14l0.09,0.15l0.07,0.15l0.05,0.16l0.04,0.17l0.02,0.119l0.01,0.181l-0.01,0.17l-0.02,0.181l-0.04,0.17
	l-0.05,0.159L80,109.7l-0.09,0.149l-0.09,0.141l-0.11,0.119l-0.12,0.121l-0.18,0.14l-0.2,0.12L79,110.58l-0.22,0.07l-0.17,0.039
	l-0.25,0.021l-12.52,0.2l-0.42-0.01l-0.4-0.07l-0.39-0.109l-0.38-0.15l-0.36-0.199l-0.34-0.229l-0.32-0.271l-0.3-0.301l-0.28-0.34
	l-0.25-0.359l-0.22-0.391l-0.19-0.42l-0.16-0.439l-0.13-0.46l-0.09-0.479l-0.04-0.33l-0.03-0.5l-0.17-10.771l0.01-0.5l0.05-0.5
	l0.09-0.47l0.13-0.46l0.15-0.44l0.19-0.41l0.22-0.39l0.25-0.37l0.27-0.33l0.3-0.3l0.32-0.27l0.34-0.23l0.36-0.2l0.38-0.15l0.39-0.11
	l0.27-0.04l0.41-0.03l12.53-0.21l0.24,0.01l0.24,0.04l0.22,0.07l0.21,0.09L79.13,90l0.18,0.14l0.12,0.12l0.11,0.12l0.1,0.14
	l0.08,0.15l0.07,0.15l0.06,0.16l0.04,0.17l0.01,0.12l0.01,0.18v0.17l-0.03,0.18l-0.03,0.17l-0.06,0.16l-0.07,0.15l-0.08,0.15
	l-0.1,0.14l-0.11,0.13l-0.12,0.11l-0.18,0.14l-0.19,0.12l-0.21,0.1l-0.23,0.06l-0.17,0.04l-0.24,0.02l-9.66,0.16h-0.08l-0.07,0.02
	l-0.07,0.02l-0.06,0.03l-0.06,0.04l-0.05,0.04L68,93.64l-0.03,0.04l-0.03,0.04l-0.02,0.05l-0.02,0.05l-0.02,0.05l-0.01,0.05v0.04
	v0.05v0.06l0.01,0.05l0.01,0.05l0.02,0.05l0.02,0.04l0.03,0.05l0.03,0.04l0.04,0.04l0.03,0.03l0.06,0.04l0.06,0.04l0.07,0.03
	l0.06,0.01l0.06,0.01l0.07,0.01l28.9-0.48l0.2,0.01l0.19,0.03l0.19,0.05l0.18,0.07l0.17,0.1l0.16,0.11l0.16,0.13l0.14,0.14
	l0.13,0.16l0.12,0.17l0.11,0.19l0.09,0.2l0.08,0.21l0.06,0.22l0.04,0.23l0.02,0.16l0.01,0.24v0.24l-0.03,0.23l-0.04,0.23l-0.06,0.22
	l-0.07,0.21l-0.09,0.2l-0.11,0.18l-0.12,0.18l-0.13,0.16l-0.14,0.14l-0.15,0.13l-0.17,0.11l-0.17,0.09l-0.18,0.07l-0.19,0.06
	l-0.12,0.02l-0.2,0.01l-16.64,0.28h-0.07l-0.07,0.021l-0.07,0.02l-0.07,0.03l-0.06,0.03l-0.06,0.05l-0.05,0.05l-0.05,0.05
	l-0.05,0.06l-0.04,0.07l-0.04,0.07l-0.03,0.07l-0.03,0.08l-0.02,0.08l-0.01,0.09l-0.01,0.06v0.09l0.01,0.09l0.01,0.08l0.02,0.09
	l0.02,0.08l0.03,0.07l0.04,0.07l0.04,0.07l0.04,0.06l0.05,0.06l0.06,0.051l0.06,0.05l0.06,0.04l0.06,0.029l0.07,0.021l0.07,0.021
	l0.05,0.011h0.07l16.64-0.28l0.19,0.01l0.2,0.03l0.18,0.06l0.18,0.07l0.18,0.09l0.16,0.11l0.15,0.13l0.15,0.148l0.13,0.16l0.12,0.17
	l0.1,0.19l0.1,0.2l0.07,0.21l0.06,0.22l0.05,0.23l0.01,0.15l0.02,0.238L99.49,103.45z"/>
<path fill="#E20074" d="M145.59,15.74l-0.08,0.38l-0.119,0.37l-0.149,0.35l-0.181,0.33l-0.211,0.31l-0.229,0.29l-0.262,0.27
	l-0.289,0.24l-0.311,0.21l-0.32,0.19l-0.35,0.15l-0.359,0.13l-0.371,0.09l-0.389,0.05l-0.4,0.02l-0.399-0.02l-0.26-0.04l-0.382-0.08
	l-0.358-0.12l-0.35-0.15l-0.33-0.18l-0.32-0.21l-0.29-0.24l-0.26-0.26l-0.24-0.28l-0.22-0.31l-0.19-0.33l-0.15-0.34l-0.13-0.36
	l-0.09-0.38l-0.05-0.39l-0.02-0.4l0.02-0.4l0.04-0.26l0.08-0.38l0.12-0.37l0.15-0.34l0.18-0.34l0.21-0.31l0.23-0.29l0.27-0.26
	l0.28-0.25l0.31-0.21l0.32-0.19l0.35-0.15l0.36-0.13l0.38-0.09l0.38-0.05l0.398-0.02l0.4,0.02l0.26,0.04l0.381,0.08l0.369,0.12
	l0.34,0.15l0.342,0.18l0.31,0.21l0.29,0.24l0.262,0.26l0.25,0.28l0.209,0.31l0.189,0.33l0.148,0.34l0.132,0.37l0.09,0.37l0.05,0.39
	l0.021,0.4l-0.021,0.4L145.59,15.74z M151.92,37.79l-0.02,0.24l-0.041,0.229l-0.069,0.22l-0.101,0.21l-0.119,0.19l-0.141,0.18
	l-0.119,0.12l-0.131,0.1l-0.141,0.1l-0.148,0.08l-0.16,0.06l-0.16,0.06l-0.17,0.03l-0.11,0.02h-0.181l-0.18-0.01l-0.171-0.02
	l-0.159-0.05l-0.16-0.06l-0.149-0.07l-0.149-0.09l-0.131-0.1l-0.13-0.11L148.77,39l-0.14-0.18l-0.11-0.2l-0.09-0.21l-0.06-0.23
	l-0.03-0.17l-0.02-0.25l0.06-9.68l-0.01-0.07l-0.011-0.07l-0.021-0.07l-0.028-0.07l-0.041-0.06l-0.039-0.05l-0.041-0.04l-0.039-0.03
	l-0.041-0.03l-0.039-0.03l-0.051-0.02l-0.049-0.01l-0.052-0.01l-0.04-0.01h-0.05h-0.062l-0.049,0.01l-0.051,0.01l-0.05,0.02
	l-0.05,0.02l-0.041,0.03l-0.039,0.03l-0.04,0.03l-0.04,0.04l-0.04,0.05l-0.03,0.06l-0.029,0.07l-0.021,0.07L147.279,28l-0.01,0.07
	l-0.16,28.96l-0.01,0.2l-0.039,0.19l-0.052,0.19l-0.079,0.18l-0.091,0.17l-0.118,0.16l-0.132,0.15l-0.149,0.14l-0.16,0.13
	l-0.17,0.11l-0.189,0.1l-0.199,0.09l-0.211,0.07l-0.22,0.06l-0.229,0.04l-0.16,0.01l-0.239,0.01l-0.24-0.01l-0.229-0.03l-0.229-0.05
	l-0.21-0.06l-0.21-0.08l-0.19-0.09l-0.188-0.11l-0.17-0.13l-0.15-0.13l-0.14-0.15l-0.13-0.15l-0.101-0.17l-0.091-0.17l-0.069-0.18
	l-0.051-0.19l-0.01-0.13l-0.02-0.2l0.1-16.67l-0.01-0.07l-0.01-0.08l-0.021-0.06l-0.029-0.07l-0.029-0.06l-0.041-0.06l-0.049-0.06
	l-0.052-0.05l-0.062-0.05l-0.068-0.04l-0.068-0.04l-0.07-0.04l-0.08-0.02l-0.08-0.03l-0.08-0.01l-0.061-0.01h-0.09h-0.091
	l-0.079,0.01l-0.091,0.02l-0.08,0.02l-0.069,0.03l-0.08,0.03l-0.061,0.04l-0.068,0.05l-0.062,0.05l-0.05,0.05l-0.04,0.06L140.62,40
	l-0.04,0.06l-0.02,0.07l-0.021,0.07l-0.012,0.04v0.08l-0.099,16.67l-0.01,0.2l-0.029,0.19l-0.061,0.19l-0.08,0.17l-0.09,0.17
	l-0.12,0.17l-0.13,0.15l-0.15,0.14l-0.16,0.12l-0.17,0.12l-0.19,0.1l-0.2,0.09l-0.21,0.07l-0.22,0.06l-0.23,0.04l-0.16,0.01
	l-0.24,0.01l-0.24-0.01l-0.23-0.03l-0.22-0.05l-0.22-0.06l-0.21-0.08l-0.19-0.1l-0.19-0.11l-0.17-0.12l-0.15-0.13l-0.14-0.15
	L135.9,58l-0.11-0.17l-0.09-0.17l-0.07-0.19l-0.04-0.18l-0.02-0.13l-0.01-0.2l0.16-28.98l-0.01-0.07l-0.01-0.07l-0.02-0.07
	l-0.03-0.06l-0.03-0.05l-0.05-0.06l-0.03-0.03l-0.04-0.03l-0.04-0.03l-0.04-0.03l-0.05-0.02l-0.05-0.01l-0.05-0.01l-0.03-0.01h-0.05
	h-0.06l-0.05,0.01l-0.05,0.01l-0.04,0.02l-0.05,0.02l-0.04,0.02l-0.04,0.03l-0.04,0.03l-0.03,0.04l-0.04,0.05l-0.04,0.06l-0.03,0.06
	l-0.01,0.07l-0.01,0.05l-0.01,0.08l-0.05,9.7l-0.02,0.24l-0.04,0.23l-0.08,0.22l-0.09,0.21l-0.13,0.19l-0.14,0.18l-0.12,0.12
	l-0.13,0.1l-0.14,0.1l-0.14,0.08l-0.16,0.06l-0.16,0.06l-0.17,0.03l-0.11,0.02h-0.18l-0.18-0.01l-0.17-0.02l-0.17-0.05l-0.16-0.05
	l-0.15-0.08l-0.14-0.09l-0.14-0.1l-0.12-0.11l-0.12-0.12l-0.13-0.18l-0.11-0.2l-0.09-0.21l-0.07-0.23l-0.03-0.17L131,37.65
	l0.07-12.55l0.03-0.41l0.07-0.41l0.12-0.39l0.16-0.37l0.2-0.36l0.24-0.33l0.27-0.32l0.31-0.29l0.34-0.27l0.37-0.24l0.39-0.22
	l0.42-0.18l0.44-0.15l0.46-0.12l0.48-0.08l0.33-0.03l0.5-0.02l10.71,0.07l0.5,0.02l0.49,0.06l0.47,0.1l0.45,0.14l0.43,0.16l0.41,0.2
	l0.39,0.23l0.351,0.26l0.33,0.28l0.289,0.3l0.26,0.33l0.222,0.35l0.188,0.36l0.142,0.38l0.101,0.4l0.041,0.27l0.02,0.41
	L151.92,37.79z"/>
<path fill="#E20074" d="M136.82,186.35l0.08-0.379l0.11-0.371l0.14-0.35l0.17-0.34l0.2-0.311l0.23-0.301l0.26-0.271l0.28-0.25
	l0.3-0.219l0.32-0.201l0.34-0.158l0.36-0.131l0.38-0.1l0.38-0.061l0.399-0.03l0.399,0.011l0.261,0.029l0.381,0.08l0.369,0.109
	l0.35,0.141l0.341,0.17l0.31,0.21l0.301,0.229l0.271,0.25l0.25,0.281l0.222,0.31l0.188,0.319l0.17,0.34l0.13,0.36l0.102,0.369
	l0.06,0.392l0.03,0.398l-0.021,0.398l-0.029,0.262l-0.07,0.38l-0.109,0.37l-0.141,0.352l-0.17,0.34l-0.209,0.318l-0.23,0.29
	l-0.25,0.271l-0.279,0.25l-0.301,0.221l-0.33,0.199l-0.34,0.16l-0.35,0.131l-0.381,0.1l-0.391,0.061l-0.39,0.029l-0.399-0.01
	l-0.261-0.029l-0.39-0.08l-0.36-0.111l-0.35-0.139l-0.34-0.17l-0.32-0.211l-0.29-0.23l-0.27-0.25l-0.25-0.278l-0.22-0.3l-0.2-0.33
	l-0.16-0.342l-0.13-0.358l-0.1-0.37l-0.06-0.39l-0.03-0.4l0.01-0.399L136.82,186.35z M151.12,177.08l-0.07,0.41l-0.1,0.39
	l-0.16,0.38l-0.19,0.36l-0.229,0.34l-0.271,0.319l-0.3,0.301l-0.329,0.279l-0.371,0.25l-0.379,0.221l-0.421,0.189l-0.44,0.16
	l-0.448,0.131l-0.479,0.09l-0.33,0.039l-0.5,0.03l-10.709,0.171l-0.5-0.012l-0.49-0.05l-0.47-0.09l-0.46-0.12l-0.43-0.16
	l-0.42-0.189l-0.38-0.221l-0.36-0.25l-0.34-0.271l-0.3-0.299l-0.26-0.319l-0.23-0.341l-0.19-0.359l-0.16-0.38l-0.1-0.392l-0.05-0.27
	l-0.03-0.42l-0.21-12.55l0.01-0.24l0.04-0.239l0.07-0.221l0.09-0.21l0.12-0.19l0.14-0.18l0.12-0.12l0.12-0.11l0.14-0.1l0.15-0.08
	l0.15-0.07l0.16-0.06l0.17-0.04l0.11-0.02l0.18-0.01l0.18,0.01l0.17,0.02l0.17,0.04l0.16,0.06l0.15,0.07l0.15,0.08l0.13,0.1
	l0.13,0.11l0.12,0.12l0.14,0.18l0.12,0.19l0.09,0.21l0.07,0.23l0.03,0.17l0.02,0.24l0.16,9.68v0.08l0.02,0.069l0.02,0.069
	l0.03,0.061l0.04,0.061l0.04,0.05l0.04,0.04l0.04,0.029l0.04,0.031l0.05,0.02l0.05,0.02l0.05,0.021l0.05,0.01h0.04l0.05,0.012
	l0.05-0.012l0.06-0.01l0.05-0.012l0.05-0.02l0.04-0.02l0.05-0.03l0.04-0.03l0.04-0.039l0.03-0.031l0.04-0.06l0.04-0.06l0.02-0.07
	l0.02-0.07l0.01-0.05v-0.069L134.4,145.1l0.01-0.188l0.03-0.2l0.05-0.189l0.07-0.181l0.09-0.17l0.11-0.16l0.13-0.159l0.15-0.141
	l0.15-0.13l0.18-0.12l0.18-0.109l0.2-0.091l0.21-0.079l0.22-0.061l0.23-0.04l0.15-0.021l0.24-0.011h0.24l0.24,0.03l0.22,0.04
	l0.22,0.06l0.21,0.07l0.2,0.1l0.18,0.102l0.17,0.12l0.16,0.13l0.14,0.14l0.13,0.15l0.11,0.17l0.09,0.17l0.08,0.18l0.05,0.19
	l0.02,0.13l0.01,0.199l0.28,16.659v0.08l0.02,0.07l0.02,0.07l0.03,0.061l0.03,0.06l0.05,0.061l0.05,0.062l0.05,0.05l0.06,0.05
	l0.07,0.04l0.07,0.04l0.07,0.029l0.08,0.021l0.08,0.021l0.08,0.02h0.06h0.09h0.09l0.091-0.01l0.08-0.021l0.079-0.03l0.07-0.029
	l0.08-0.03l0.06-0.039l0.061-0.051l0.061-0.05l0.051-0.051l0.051-0.06l0.039-0.061l0.029-0.07l0.021-0.061l0.02-0.069l0.01-0.05
	v-0.07L141.08,145v-0.2l0.029-0.2l0.061-0.18l0.07-0.18l0.09-0.18l0.109-0.16l0.131-0.15l0.14-0.15l0.16-0.129l0.18-0.121l0.181-0.1
	l0.199-0.1l0.211-0.07l0.219-0.061l0.222-0.049l0.16-0.021l0.239-0.012l0.24,0.012l0.229,0.021l0.229,0.038l0.221,0.062l0.209,0.08
	l0.189,0.09l0.19,0.1l0.17,0.12l0.159,0.13l0.141,0.141l0.13,0.16l0.11,0.159l0.09,0.171l0.068,0.18l0.062,0.189l0.021,0.131
	l0.011,0.199l0.479,28.971v0.069l0.021,0.069l0.021,0.07l0.029,0.061l0.04,0.05l0.04,0.06l0.029,0.03l0.041,0.03l0.039,0.029
	l0.051,0.021l0.039,0.021l0.051,0.021l0.05,0.011h0.04h0.051h0.049l0.051-0.011l0.051-0.01l0.05-0.021l0.04-0.021l0.051-0.03
	l0.039-0.029l0.03-0.03l0.04-0.039l0.029-0.052l0.039-0.06l0.021-0.069l0.02-0.061l0.01-0.05v-0.08l-0.16-9.7l0.01-0.24l0.051-0.229
	l0.061-0.229l0.1-0.212l0.11-0.188l0.14-0.18l0.12-0.121l0.12-0.109l0.141-0.1l0.149-0.08l0.149-0.07l0.16-0.061l0.17-0.029
	l0.109-0.021l0.18-0.01h0.18l0.172,0.029l0.17,0.029l0.158,0.062l0.15,0.069l0.15,0.08l0.141,0.101l0.119,0.108l0.12,0.121
	l0.14,0.18l0.121,0.189l0.09,0.211l0.069,0.229l0.03,0.17l0.02,0.25l0.211,12.55L151.12,177.08z"/>
</svg>
