<?xml version="1.0" encoding="utf-8"?>
<!-- Generator: Adobe Illustrator 16.0.4, SVG Export Plug-In . SVG Version: 6.00 Build 0)  -->
<svg version="1.2" baseProfile="tiny" id="Ebene_1" xmlns="http://www.w3.org/2000/svg" xmlns:xlink="http://www.w3.org/1999/xlink"
	 x="0px" y="0px" width="280px" height="200px" viewBox="0 0 280 200" xml:space="preserve">
<rect x="9" y="99" fill="#E20074" width="262" height="5"/>
<path fill="#E20074" d="M239,26v63h-44V26H239 M239,24h-44c-1.104,0-2,0.896-2,2v63c0,1.104,0.896,2,2,2h44c1.104,0,2-0.896,2-2V26
	C241,24.896,240.104,24,239,24L239,24z"/>
<path fill="#E20074" d="M224,25c-0.49-5.93-1.3-11-4-11h-7c-1.891,0-3.05,9.1-3,11"/>
<path fill="#FFFFFF" d="M217,17.09c1.24,0,2.25,1,2.25,2.25c0,1.24-1.01,2.24-2.25,2.24s-2.25-1-2.25-2.24
	C214.75,18.09,215.76,17.09,217,17.09z"/>
<g>
	<path fill="#E10073" d="M204.99,81v-1.188l1.519-1.475c3.652-3.476,5.304-5.325,5.324-7.481c0-1.452-0.704-2.794-2.838-2.794
		c-1.3,0-2.377,0.66-3.037,1.21l-0.616-1.364c0.99-0.836,2.398-1.452,4.049-1.452c3.082,0,4.379,2.112,4.379,4.158
		c0,2.641-1.914,4.775-4.929,7.679l-1.146,1.056v0.044h6.426V81H204.99z"/>
	<path fill="#E10073" d="M224.812,68.326h-5.457L218.807,72c0.33-0.044,0.639-0.088,1.166-0.088c1.101,0,2.2,0.242,3.08,0.77
		c1.122,0.638,2.047,1.871,2.047,3.675c0,2.794-2.223,4.885-5.324,4.885c-1.562,0-2.883-0.44-3.564-0.88l0.484-1.474
		c0.594,0.352,1.76,0.792,3.058,0.792c1.826,0,3.39-1.188,3.39-3.103c-0.021-1.848-1.254-3.168-4.115-3.168
		c-0.813,0-1.451,0.088-1.979,0.154l0.925-6.865h6.844v1.628H224.812z"/>
</g>
<path fill="#E20074" d="M219.391,34.56l5.569,4.65V58h-16.09l0.06-23.44H219.391 M219.391,33.56H208.93
	c-0.551,0-0.998,0.446-1,0.998l-0.06,23.44c0,0.266,0.104,0.521,0.292,0.708C208.35,58.895,208.604,59,208.87,59h16.09
	c0.552,0,1-0.448,1-1V39.21c0-0.296-0.131-0.578-0.358-0.768l-5.569-4.65C219.852,33.642,219.625,33.56,219.391,33.56L219.391,33.56
	z"/>
<polygon fill="none" stroke="#E20074" stroke-linecap="round" stroke-linejoin="round" stroke-miterlimit="10" points="
	210.58,43.47 211.84,42.05 221.971,42 223.18,43.43 223.07,54.36 222.09,55.45 211.91,55.51 210.55,54.2 "/>
<line fill="none" stroke="#E20074" stroke-linecap="round" stroke-linejoin="round" stroke-miterlimit="10" x1="222.83" y1="50.5" x2="210.83" y2="50.5"/>
<line fill="none" stroke="#E20074" stroke-linecap="round" stroke-linejoin="round" stroke-miterlimit="10" x1="211.5" y1="47.5" x2="223.17" y2="47.5"/>
<line fill="none" stroke="#E20074" stroke-linecap="round" stroke-linejoin="round" stroke-miterlimit="10" x1="219.5" y1="42.5" x2="219.5" y2="47.5"/>
<line fill="none" stroke="#E20074" stroke-linecap="round" stroke-linejoin="round" stroke-miterlimit="10" x1="219.5" y1="50.5" x2="219.5" y2="55.5"/>
<line fill="none" stroke="#E20074" stroke-linecap="round" stroke-linejoin="round" stroke-miterlimit="10" x1="216.5" y1="42.5" x2="216.5" y2="47.5"/>
<line fill="none" stroke="#E20074" stroke-linecap="round" stroke-linejoin="round" stroke-miterlimit="10" x1="216.5" y1="50.5" x2="216.5" y2="55.5"/>
<line fill="none" stroke="#E20074" stroke-linecap="round" stroke-linejoin="round" stroke-miterlimit="10" x1="213.5" y1="42.5" x2="213.5" y2="47.5"/>
<line fill="none" stroke="#E20074" stroke-linecap="round" stroke-linejoin="round" stroke-miterlimit="10" x1="213.5" y1="50.5" x2="213.5" y2="55.5"/>
<path fill="#E20074" d="M188,26v63h-44V26H188 M188,24h-44c-1.104,0-2,0.896-2,2v63c0,1.104,0.896,2,2,2h44c1.104,0,2-0.896,2-2V26
	C190,24.896,189.104,24,188,24L188,24z"/>
<path fill="#E20074" d="M173,25c-0.49-5.93-1.3-11-4-11h-7c-1.891,0-3.05,9.1-3,11"/>
<path fill="#FFFFFF" d="M166,17.09c1.24,0,2.25,1,2.25,2.25c0,1.24-1.01,2.24-2.25,2.24s-2.25-1-2.25-2.24
	C163.75,18.09,164.76,17.09,166,17.09z"/>
<g>
	<path fill="#E10073" d="M153.99,81v-1.188l1.519-1.475c3.652-3.476,5.304-5.325,5.324-7.481c0-1.452-0.704-2.794-2.838-2.794
		c-1.3,0-2.377,0.66-3.037,1.21l-0.616-1.364c0.99-0.836,2.398-1.452,4.049-1.452c3.082,0,4.379,2.112,4.379,4.158
		c0,2.641-1.914,4.775-4.929,7.679l-1.146,1.056v0.044h6.426V81H153.99z"/>
	<path fill="#E10073" d="M173.812,68.326h-5.457L167.807,72c0.33-0.044,0.639-0.088,1.166-0.088c1.101,0,2.2,0.242,3.08,0.77
		c1.122,0.638,2.047,1.871,2.047,3.675c0,2.794-2.223,4.885-5.324,4.885c-1.562,0-2.883-0.44-3.564-0.88l0.484-1.474
		c0.594,0.352,1.76,0.792,3.058,0.792c1.826,0,3.39-1.188,3.39-3.103c-0.021-1.848-1.254-3.168-4.115-3.168
		c-0.813,0-1.451,0.088-1.979,0.154l0.925-6.865h6.844v1.628H173.812z"/>
</g>
<path fill="#E20074" d="M168.391,34.56l5.569,4.65V58h-16.09l0.06-23.44H168.391 M168.391,33.56H157.93
	c-0.551,0-0.998,0.446-1,0.998l-0.06,23.44c0,0.266,0.104,0.521,0.292,0.708C157.35,58.895,157.604,59,157.87,59h16.09
	c0.552,0,1-0.448,1-1V39.21c0-0.296-0.131-0.578-0.358-0.768l-5.569-4.65C168.852,33.642,168.625,33.56,168.391,33.56L168.391,33.56
	z"/>
<polygon fill="none" stroke="#E20074" stroke-linecap="round" stroke-linejoin="round" stroke-miterlimit="10" points="
	159.58,43.47 160.84,42.05 170.971,42 172.18,43.43 172.07,54.36 171.09,55.45 160.91,55.51 159.55,54.2 "/>
<line fill="none" stroke="#E20074" stroke-linecap="round" stroke-linejoin="round" stroke-miterlimit="10" x1="171.83" y1="50.5" x2="159.83" y2="50.5"/>
<line fill="none" stroke="#E20074" stroke-linecap="round" stroke-linejoin="round" stroke-miterlimit="10" x1="160.5" y1="47.5" x2="172.17" y2="47.5"/>
<line fill="none" stroke="#E20074" stroke-linecap="round" stroke-linejoin="round" stroke-miterlimit="10" x1="168.5" y1="42.5" x2="168.5" y2="47.5"/>
<line fill="none" stroke="#E20074" stroke-linecap="round" stroke-linejoin="round" stroke-miterlimit="10" x1="168.5" y1="50.5" x2="168.5" y2="55.5"/>
<line fill="none" stroke="#E20074" stroke-linecap="round" stroke-linejoin="round" stroke-miterlimit="10" x1="165.5" y1="42.5" x2="165.5" y2="47.5"/>
<line fill="none" stroke="#E20074" stroke-linecap="round" stroke-linejoin="round" stroke-miterlimit="10" x1="165.5" y1="50.5" x2="165.5" y2="55.5"/>
<line fill="none" stroke="#E20074" stroke-linecap="round" stroke-linejoin="round" stroke-miterlimit="10" x1="162.5" y1="42.5" x2="162.5" y2="47.5"/>
<line fill="none" stroke="#E20074" stroke-linecap="round" stroke-linejoin="round" stroke-miterlimit="10" x1="162.5" y1="50.5" x2="162.5" y2="55.5"/>
<path fill="#E20074" d="M137,26v63H93V26H137 M137,24H93c-1.104,0-2,0.896-2,2v63c0,1.104,0.896,2,2,2h44c1.104,0,2-0.896,2-2V26
	C139,24.896,138.104,24,137,24L137,24z"/>
<path fill="#E20074" d="M122,25c-0.49-5.93-1.3-11-4-11h-7c-1.89,0-3.05,9.1-3,11"/>
<path fill="#FFFFFF" d="M115,17.09c1.24,0,2.25,1,2.25,2.25c0,1.24-1.01,2.24-2.25,2.24s-2.25-1-2.25-2.24
	C112.75,18.09,113.76,17.09,115,17.09z"/>
<g>
	<path fill="#E10073" d="M107.193,68.502h-0.044l-2.486,1.342l-0.375-1.474l3.125-1.672h1.65V81h-1.87V68.502z"/>
	<path fill="#E10073" d="M122.813,68.326h-5.457L116.806,72c0.33-0.044,0.638-0.088,1.166-0.088c1.1,0,2.201,0.242,3.081,0.77
		c1.122,0.638,2.046,1.871,2.046,3.675c0,2.794-2.222,4.885-5.325,4.885c-1.562,0-2.882-0.44-3.564-0.88l0.484-1.474
		c0.594,0.352,1.76,0.792,3.059,0.792c1.826,0,3.388-1.188,3.388-3.103c-0.022-1.848-1.254-3.168-4.114-3.168
		c-0.814,0-1.452,0.088-1.98,0.154l0.924-6.865h6.843L122.813,68.326L122.813,68.326z"/>
</g>
<path fill="#E20074" d="M117.39,34.56l5.57,4.65V58h-16.09l0.06-23.44H117.39 M117.39,33.56h-10.46c-0.551,0-0.999,0.446-1,0.998
	l-0.06,23.44c0,0.266,0.104,0.521,0.292,0.708C106.35,58.895,106.604,59,106.87,59h16.09c0.552,0,1-0.448,1-1V39.21
	c0-0.296-0.131-0.578-0.359-0.768l-5.569-4.65C117.851,33.642,117.625,33.56,117.39,33.56L117.39,33.56z"/>
<polygon fill="none" stroke="#E20074" stroke-linecap="round" stroke-linejoin="round" stroke-miterlimit="10" points="
	108.58,43.47 109.84,42.05 119.97,42 121.18,43.43 121.07,54.36 120.09,55.45 109.91,55.51 108.55,54.2 "/>
<line fill="none" stroke="#E20074" stroke-linecap="round" stroke-linejoin="round" stroke-miterlimit="10" x1="120.83" y1="50.5" x2="108.83" y2="50.5"/>
<line fill="none" stroke="#E20074" stroke-linecap="round" stroke-linejoin="round" stroke-miterlimit="10" x1="109.5" y1="47.5" x2="121.17" y2="47.5"/>
<line fill="none" stroke="#E20074" stroke-linecap="round" stroke-linejoin="round" stroke-miterlimit="10" x1="117.5" y1="42.5" x2="117.5" y2="47.5"/>
<line fill="none" stroke="#E20074" stroke-linecap="round" stroke-linejoin="round" stroke-miterlimit="10" x1="117.5" y1="50.5" x2="117.5" y2="55.5"/>
<line fill="none" stroke="#E20074" stroke-linecap="round" stroke-linejoin="round" stroke-miterlimit="10" x1="114.5" y1="42.5" x2="114.5" y2="47.5"/>
<line fill="none" stroke="#E20074" stroke-linecap="round" stroke-linejoin="round" stroke-miterlimit="10" x1="114.5" y1="50.5" x2="114.5" y2="55.5"/>
<line fill="none" stroke="#E20074" stroke-linecap="round" stroke-linejoin="round" stroke-miterlimit="10" x1="111.5" y1="42.5" x2="111.5" y2="47.5"/>
<line fill="none" stroke="#E20074" stroke-linecap="round" stroke-linejoin="round" stroke-miterlimit="10" x1="111.5" y1="50.5" x2="111.5" y2="55.5"/>
<path fill="#E20074" d="M85,26v63H41V26H85 M85,24H41c-1.104,0-2,0.896-2,2v63c0,1.104,0.896,2,2,2h44c1.104,0,2-0.896,2-2V26
	C87,24.896,86.104,24,85,24L85,24z"/>
<path fill="#E20074" d="M70,25c-0.49-5.93-1.3-11-4-11h-7c-1.89,0-3.05,9.1-3,11"/>
<path fill="#FFFFFF" d="M63,17.09c1.24,0,2.25,1,2.25,2.25c0,1.24-1.01,2.24-2.25,2.24s-2.25-1-2.25-2.24
	C60.75,18.09,61.76,17.09,63,17.09z"/>
<g>
	<path fill="#E10073" d="M55.193,68.502h-0.044l-2.486,1.342l-0.375-1.474l3.125-1.672h1.65V81h-1.87V68.502z"/>
	<path fill="#E10073" d="M70.813,68.326h-5.457L64.806,72c0.33-0.044,0.638-0.088,1.166-0.088c1.1,0,2.201,0.242,3.081,0.77
		c1.122,0.638,2.046,1.871,2.046,3.675c0,2.794-2.222,4.885-5.325,4.885c-1.562,0-2.882-0.44-3.564-0.88l0.484-1.474
		c0.594,0.352,1.76,0.792,3.059,0.792c1.826,0,3.388-1.188,3.388-3.103c-0.022-1.848-1.254-3.168-4.114-3.168
		c-0.814,0-1.452,0.088-1.98,0.154l0.924-6.865h6.843L70.813,68.326L70.813,68.326z"/>
</g>
<path fill="#E20074" d="M65.39,34.56l5.57,4.65V58H54.87l0.06-23.44H65.39 M65.39,33.56H54.93c-0.551,0-0.999,0.446-1,0.998
	l-0.06,23.44c0,0.266,0.104,0.521,0.292,0.708C54.35,58.895,54.604,59,54.87,59h16.09c0.552,0,1-0.448,1-1V39.21
	c0-0.296-0.131-0.578-0.359-0.768l-5.569-4.65C65.851,33.642,65.625,33.56,65.39,33.56L65.39,33.56z"/>
<polygon fill="none" stroke="#E20074" stroke-linecap="round" stroke-linejoin="round" stroke-miterlimit="10" points="56.58,43.47 
	57.84,42.05 67.97,42 69.18,43.43 69.07,54.36 68.09,55.45 57.91,55.51 56.55,54.2 "/>
<line fill="none" stroke="#E20074" stroke-linecap="round" stroke-linejoin="round" stroke-miterlimit="10" x1="68.83" y1="50.5" x2="56.83" y2="50.5"/>
<line fill="none" stroke="#E20074" stroke-linecap="round" stroke-linejoin="round" stroke-miterlimit="10" x1="57.5" y1="47.5" x2="69.17" y2="47.5"/>
<line fill="none" stroke="#E20074" stroke-linecap="round" stroke-linejoin="round" stroke-miterlimit="10" x1="65.5" y1="42.5" x2="65.5" y2="47.5"/>
<line fill="none" stroke="#E20074" stroke-linecap="round" stroke-linejoin="round" stroke-miterlimit="10" x1="65.5" y1="50.5" x2="65.5" y2="55.5"/>
<line fill="none" stroke="#E20074" stroke-linecap="round" stroke-linejoin="round" stroke-miterlimit="10" x1="62.5" y1="42.5" x2="62.5" y2="47.5"/>
<line fill="none" stroke="#E20074" stroke-linecap="round" stroke-linejoin="round" stroke-miterlimit="10" x1="62.5" y1="50.5" x2="62.5" y2="55.5"/>
<line fill="none" stroke="#E20074" stroke-linecap="round" stroke-linejoin="round" stroke-miterlimit="10" x1="59.5" y1="42.5" x2="59.5" y2="47.5"/>
<line fill="none" stroke="#E20074" stroke-linecap="round" stroke-linejoin="round" stroke-miterlimit="10" x1="59.5" y1="50.5" x2="59.5" y2="55.5"/>
<path fill="#E20074" d="M239,121v63h-44v-63H239 M239,119h-44c-1.104,0-2,0.896-2,2v63c0,1.104,0.896,2,2,2h44c1.104,0,2-0.896,2-2
	v-63C241,119.896,240.104,119,239,119L239,119z"/>
<path fill="#E20074" d="M224,120c-0.49-5.93-1.3-11-4-11h-7c-1.891,0-3.05,9.1-3,11"/>
<path fill="#FFFFFF" d="M217,112.09c1.24,0,2.25,1,2.25,2.25c0,1.24-1.01,2.24-2.25,2.24s-2.25-1-2.25-2.24
	C214.75,113.09,215.76,112.09,217,112.09z"/>
<g>
	<path fill="#E10073" d="M213.527,163.326h-5.457l-0.551,3.675c0.33-0.044,0.639-0.088,1.166-0.088c1.102,0,2.2,0.241,3.082,0.771
		c1.121,0.639,2.045,1.869,2.045,3.674c0,2.795-2.223,4.886-5.324,4.886c-1.562,0-2.883-0.44-3.564-0.88l0.484-1.475
		c0.594,0.353,1.76,0.791,3.059,0.791c1.826,0,3.389-1.188,3.389-3.103c-0.021-1.849-1.254-3.168-4.114-3.168
		c-0.813,0-1.452,0.088-1.98,0.153l0.925-6.864h6.844v1.628H213.527z"/>
	<path fill="#E10073" d="M225.781,168.695c0,4.861-1.805,7.547-4.973,7.547c-2.795,0-4.688-2.618-4.73-7.35
		c0-4.797,2.068-7.438,4.973-7.438C224.064,161.456,225.781,164.141,225.781,168.695z M218.014,168.915
		c0,3.719,1.146,5.831,2.905,5.831c1.979,0,2.927-2.311,2.927-5.963c0-3.521-0.902-5.831-2.904-5.831
		C219.246,162.952,218.014,165.021,218.014,168.915z"/>
</g>
<path fill="#E20074" d="M219.391,129.561l5.569,4.649V153h-16.09l0.06-23.439H219.391 M219.391,128.561H208.93
	c-0.551,0-0.998,0.446-1,0.998l-0.06,23.439c0,0.266,0.104,0.521,0.292,0.708c0.188,0.188,0.441,0.294,0.708,0.294h16.09
	c0.552,0,1-0.448,1-1v-18.79c0-0.296-0.131-0.578-0.358-0.769l-5.569-4.648C219.852,128.643,219.625,128.561,219.391,128.561
	L219.391,128.561z"/>
<polygon fill="none" stroke="#E20074" stroke-linecap="round" stroke-linejoin="round" stroke-miterlimit="10" points="
	210.58,138.471 211.84,137.05 221.971,137 223.18,138.43 223.07,149.359 222.09,150.45 211.91,150.51 210.55,149.2 "/>
<line fill="none" stroke="#E20074" stroke-linecap="round" stroke-linejoin="round" stroke-miterlimit="10" x1="222.83" y1="145.5" x2="210.83" y2="145.5"/>
<line fill="none" stroke="#E20074" stroke-linecap="round" stroke-linejoin="round" stroke-miterlimit="10" x1="211.5" y1="142.5" x2="223.17" y2="142.5"/>
<line fill="none" stroke="#E20074" stroke-linecap="round" stroke-linejoin="round" stroke-miterlimit="10" x1="219.5" y1="137.5" x2="219.5" y2="142.5"/>
<line fill="none" stroke="#E20074" stroke-linecap="round" stroke-linejoin="round" stroke-miterlimit="10" x1="219.5" y1="145.5" x2="219.5" y2="150.5"/>
<line fill="none" stroke="#E20074" stroke-linecap="round" stroke-linejoin="round" stroke-miterlimit="10" x1="216.5" y1="137.5" x2="216.5" y2="142.5"/>
<line fill="none" stroke="#E20074" stroke-linecap="round" stroke-linejoin="round" stroke-miterlimit="10" x1="216.5" y1="145.5" x2="216.5" y2="150.5"/>
<line fill="none" stroke="#E20074" stroke-linecap="round" stroke-linejoin="round" stroke-miterlimit="10" x1="213.5" y1="137.5" x2="213.5" y2="142.5"/>
<line fill="none" stroke="#E20074" stroke-linecap="round" stroke-linejoin="round" stroke-miterlimit="10" x1="213.5" y1="145.5" x2="213.5" y2="150.5"/>
<path fill="#E20074" d="M188,121v63h-44v-63H188 M188,119h-44c-1.104,0-2,0.896-2,2v63c0,1.104,0.896,2,2,2h44c1.104,0,2-0.896,2-2
	v-63C190,119.896,189.104,119,188,119L188,119z"/>
<path fill="#E20074" d="M173,120c-0.49-5.93-1.3-11-4-11h-7c-1.891,0-3.05,9.1-3,11"/>
<path fill="#FFFFFF" d="M166,112.09c1.24,0,2.25,1,2.25,2.25c0,1.24-1.01,2.24-2.25,2.24s-2.25-1-2.25-2.24
	C163.75,113.09,164.76,112.09,166,112.09z"/>
<g>
	<path fill="#E10073" d="M162.527,163.326h-5.457l-0.551,3.675c0.33-0.044,0.639-0.088,1.166-0.088c1.102,0,2.2,0.241,3.082,0.771
		c1.121,0.639,2.045,1.869,2.045,3.674c0,2.795-2.223,4.886-5.324,4.886c-1.562,0-2.883-0.44-3.564-0.88l0.484-1.475
		c0.594,0.353,1.76,0.791,3.059,0.791c1.826,0,3.389-1.188,3.389-3.103c-0.021-1.849-1.254-3.168-4.114-3.168
		c-0.813,0-1.452,0.088-1.98,0.153l0.925-6.864h6.844v1.628H162.527z"/>
	<path fill="#E10073" d="M174.781,168.695c0,4.861-1.805,7.547-4.973,7.547c-2.795,0-4.688-2.618-4.73-7.35
		c0-4.797,2.068-7.438,4.973-7.438C173.064,161.456,174.781,164.141,174.781,168.695z M167.014,168.915
		c0,3.719,1.146,5.831,2.905,5.831c1.979,0,2.927-2.311,2.927-5.963c0-3.521-0.902-5.831-2.904-5.831
		C168.246,162.952,167.014,165.021,167.014,168.915z"/>
</g>
<path fill="#E20074" d="M168.391,129.561l5.569,4.649V153h-16.09l0.06-23.439H168.391 M168.391,128.561H157.93
	c-0.551,0-0.998,0.446-1,0.998l-0.06,23.439c0,0.266,0.104,0.521,0.292,0.708c0.188,0.188,0.441,0.294,0.708,0.294h16.09
	c0.552,0,1-0.448,1-1v-18.79c0-0.296-0.131-0.578-0.358-0.769l-5.569-4.648C168.852,128.643,168.625,128.561,168.391,128.561
	L168.391,128.561z"/>
<polygon fill="none" stroke="#E20074" stroke-linecap="round" stroke-linejoin="round" stroke-miterlimit="10" points="
	159.58,138.471 160.84,137.05 170.971,137 172.18,138.43 172.07,149.359 171.09,150.45 160.91,150.51 159.55,149.2 "/>
<line fill="none" stroke="#E20074" stroke-linecap="round" stroke-linejoin="round" stroke-miterlimit="10" x1="171.83" y1="145.5" x2="159.83" y2="145.5"/>
<line fill="none" stroke="#E20074" stroke-linecap="round" stroke-linejoin="round" stroke-miterlimit="10" x1="160.5" y1="142.5" x2="172.17" y2="142.5"/>
<line fill="none" stroke="#E20074" stroke-linecap="round" stroke-linejoin="round" stroke-miterlimit="10" x1="168.5" y1="137.5" x2="168.5" y2="142.5"/>
<line fill="none" stroke="#E20074" stroke-linecap="round" stroke-linejoin="round" stroke-miterlimit="10" x1="168.5" y1="145.5" x2="168.5" y2="150.5"/>
<line fill="none" stroke="#E20074" stroke-linecap="round" stroke-linejoin="round" stroke-miterlimit="10" x1="165.5" y1="137.5" x2="165.5" y2="142.5"/>
<line fill="none" stroke="#E20074" stroke-linecap="round" stroke-linejoin="round" stroke-miterlimit="10" x1="165.5" y1="145.5" x2="165.5" y2="150.5"/>
<line fill="none" stroke="#E20074" stroke-linecap="round" stroke-linejoin="round" stroke-miterlimit="10" x1="162.5" y1="137.5" x2="162.5" y2="142.5"/>
<line fill="none" stroke="#E20074" stroke-linecap="round" stroke-linejoin="round" stroke-miterlimit="10" x1="162.5" y1="145.5" x2="162.5" y2="150.5"/>
<path fill="#E20074" d="M137,121v63H93v-63H137 M137,119H93c-1.104,0-2,0.896-2,2v63c0,1.104,0.896,2,2,2h44c1.104,0,2-0.896,2-2
	v-63C139,119.896,138.104,119,137,119L137,119z"/>
<path fill="#E20074" d="M122,120c-0.49-5.93-1.3-11-4-11h-7c-1.89,0-3.05,9.1-3,11"/>
<path fill="#FFFFFF" d="M115,112.09c1.24,0,2.25,1,2.25,2.25c0,1.24-1.01,2.24-2.25,2.24s-2.25-1-2.25-2.24
	C112.75,113.09,113.76,112.09,115,112.09z"/>
<g>
	<path fill="#E10073" d="M111.527,163.326h-5.457l-0.55,3.675c0.33-0.044,0.638-0.088,1.166-0.088c1.1,0,2.201,0.241,3.081,0.771
		c1.122,0.639,2.046,1.869,2.046,3.674c0,2.795-2.222,4.886-5.325,4.886c-1.562,0-2.882-0.44-3.564-0.88l0.484-1.475
		c0.594,0.353,1.76,0.791,3.059,0.791c1.826,0,3.388-1.188,3.388-3.103c-0.022-1.849-1.254-3.168-4.114-3.168
		c-0.814,0-1.453,0.088-1.98,0.153l0.924-6.864h6.843L111.527,163.326L111.527,163.326z"/>
	<path fill="#E10073" d="M123.781,168.695c0,4.861-1.804,7.547-4.973,7.547c-2.794,0-4.687-2.618-4.731-7.35
		c0-4.797,2.068-7.438,4.973-7.438C122.065,161.456,123.781,164.141,123.781,168.695z M116.014,168.915
		c0,3.719,1.144,5.831,2.904,5.831c1.98,0,2.926-2.311,2.926-5.963c0-3.521-0.902-5.831-2.904-5.831
		C117.246,162.952,116.014,165.021,116.014,168.915z"/>
</g>
<path fill="#E20074" d="M117.39,129.561l5.57,4.649V153h-16.09l0.06-23.439H117.39 M117.39,128.561h-10.46
	c-0.551,0-0.999,0.446-1,0.998l-0.06,23.439c0,0.266,0.104,0.521,0.292,0.708c0.188,0.188,0.442,0.294,0.708,0.294h16.09
	c0.552,0,1-0.448,1-1v-18.79c0-0.296-0.131-0.578-0.359-0.769l-5.57-4.648C117.851,128.643,117.625,128.561,117.39,128.561
	L117.39,128.561z"/>
<polygon fill="none" stroke="#E20074" stroke-linecap="round" stroke-linejoin="round" stroke-miterlimit="10" points="
	108.58,138.471 109.84,137.05 119.97,137 121.18,138.43 121.07,149.359 120.09,150.45 109.91,150.51 108.55,149.2 "/>
<line fill="none" stroke="#E20074" stroke-linecap="round" stroke-linejoin="round" stroke-miterlimit="10" x1="120.83" y1="145.5" x2="108.83" y2="145.5"/>
<line fill="none" stroke="#E20074" stroke-linecap="round" stroke-linejoin="round" stroke-miterlimit="10" x1="109.5" y1="142.5" x2="121.17" y2="142.5"/>
<line fill="none" stroke="#E20074" stroke-linecap="round" stroke-linejoin="round" stroke-miterlimit="10" x1="117.5" y1="137.5" x2="117.5" y2="142.5"/>
<line fill="none" stroke="#E20074" stroke-linecap="round" stroke-linejoin="round" stroke-miterlimit="10" x1="117.5" y1="145.5" x2="117.5" y2="150.5"/>
<line fill="none" stroke="#E20074" stroke-linecap="round" stroke-linejoin="round" stroke-miterlimit="10" x1="114.5" y1="137.5" x2="114.5" y2="142.5"/>
<line fill="none" stroke="#E20074" stroke-linecap="round" stroke-linejoin="round" stroke-miterlimit="10" x1="114.5" y1="145.5" x2="114.5" y2="150.5"/>
<line fill="none" stroke="#E20074" stroke-linecap="round" stroke-linejoin="round" stroke-miterlimit="10" x1="111.5" y1="137.5" x2="111.5" y2="142.5"/>
<line fill="none" stroke="#E20074" stroke-linecap="round" stroke-linejoin="round" stroke-miterlimit="10" x1="111.5" y1="145.5" x2="111.5" y2="150.5"/>
<path fill="#E20074" d="M85,121v63H41v-63H85 M85,119H41c-1.104,0-2,0.896-2,2v63c0,1.104,0.896,2,2,2h44c1.104,0,2-0.896,2-2v-63
	C87,119.896,86.104,119,85,119L85,119z"/>
<path fill="#E20074" d="M70,120c-0.49-5.93-1.3-11-4-11h-7c-1.89,0-3.05,9.1-3,11"/>
<path fill="#FFFFFF" d="M63,112.09c1.24,0,2.25,1,2.25,2.25c0,1.24-1.01,2.24-2.25,2.24s-2.25-1-2.25-2.24
	C60.75,113.09,61.76,112.09,63,112.09z"/>
<g>
	<path fill="#E10073" d="M59.527,163.326H54.07l-0.55,3.675c0.33-0.044,0.638-0.088,1.166-0.088c1.1,0,2.201,0.241,3.081,0.771
		c1.122,0.639,2.046,1.869,2.046,3.674c0,2.795-2.222,4.886-5.325,4.886c-1.562,0-2.882-0.44-3.564-0.88l0.484-1.475
		c0.594,0.353,1.76,0.791,3.059,0.791c1.826,0,3.388-1.188,3.388-3.103c-0.022-1.849-1.254-3.168-4.114-3.168
		c-0.814,0-1.453,0.088-1.98,0.153l0.924-6.864h6.843L59.527,163.326L59.527,163.326z"/>
	<path fill="#E10073" d="M71.781,168.695c0,4.861-1.804,7.547-4.973,7.547c-2.794,0-4.687-2.618-4.731-7.35
		c0-4.797,2.068-7.438,4.973-7.438C70.065,161.456,71.781,164.141,71.781,168.695z M64.014,168.915c0,3.719,1.144,5.831,2.904,5.831
		c1.98,0,2.926-2.311,2.926-5.963c0-3.521-0.902-5.831-2.904-5.831C65.246,162.952,64.014,165.021,64.014,168.915z"/>
</g>
<path fill="#E20074" d="M65.39,129.561l5.57,4.649V153H54.87l0.06-23.439H65.39 M65.39,128.561H54.93c-0.551,0-0.999,0.446-1,0.998
	l-0.06,23.439c0,0.266,0.104,0.521,0.292,0.708C54.35,153.895,54.604,154,54.87,154h16.09c0.552,0,1-0.448,1-1v-18.79
	c0-0.296-0.131-0.578-0.359-0.769l-5.57-4.648C65.851,128.643,65.625,128.561,65.39,128.561L65.39,128.561z"/>
<polygon fill="none" stroke="#E20074" stroke-linecap="round" stroke-linejoin="round" stroke-miterlimit="10" points="
	56.58,138.471 57.84,137.05 67.97,137 69.18,138.43 69.07,149.359 68.09,150.45 57.91,150.51 56.55,149.2 "/>
<line fill="none" stroke="#E20074" stroke-linecap="round" stroke-linejoin="round" stroke-miterlimit="10" x1="68.83" y1="145.5" x2="56.83" y2="145.5"/>
<line fill="none" stroke="#E20074" stroke-linecap="round" stroke-linejoin="round" stroke-miterlimit="10" x1="57.5" y1="142.5" x2="69.17" y2="142.5"/>
<line fill="none" stroke="#E20074" stroke-linecap="round" stroke-linejoin="round" stroke-miterlimit="10" x1="65.5" y1="137.5" x2="65.5" y2="142.5"/>
<line fill="none" stroke="#E20074" stroke-linecap="round" stroke-linejoin="round" stroke-miterlimit="10" x1="65.5" y1="145.5" x2="65.5" y2="150.5"/>
<line fill="none" stroke="#E20074" stroke-linecap="round" stroke-linejoin="round" stroke-miterlimit="10" x1="62.5" y1="137.5" x2="62.5" y2="142.5"/>
<line fill="none" stroke="#E20074" stroke-linecap="round" stroke-linejoin="round" stroke-miterlimit="10" x1="62.5" y1="145.5" x2="62.5" y2="150.5"/>
<line fill="none" stroke="#E20074" stroke-linecap="round" stroke-linejoin="round" stroke-miterlimit="10" x1="59.5" y1="137.5" x2="59.5" y2="142.5"/>
<line fill="none" stroke="#E20074" stroke-linecap="round" stroke-linejoin="round" stroke-miterlimit="10" x1="59.5" y1="145.5" x2="59.5" y2="150.5"/>
</svg>
