<?xml version="1.0" encoding="utf-8"?>
<!-- Generator: Adobe Illustrator 16.0.4, SVG Export Plug-In . SVG Version: 6.00 Build 0)  -->
<svg version="1.2" baseProfile="tiny" id="Ebene_1" xmlns="http://www.w3.org/2000/svg" xmlns:xlink="http://www.w3.org/1999/xlink"
	 x="0px" y="0px" width="280px" height="200px" viewBox="0 0 280 200" xml:space="preserve">
<polygon fill="#E20074" points="219.98,105.359 220.029,94.18 177.279,94.26 177.3,105.109 172.71,105.109 172.71,90.29 
	224.5,90.29 224.48,105.38 "/>
<g>
	<path fill="#E20074" d="M148.6,158.439c-0.266,0-0.52-0.105-0.707-0.293c-0.188-0.188-0.293-0.443-0.293-0.709l0.11-52.83
		c0.001-0.551,0.449-0.998,1-0.998l109.36,0.062c0.266,0,0.521,0.104,0.707,0.293c0.188,0.188,0.293,0.442,0.293,0.707l-0.03,52.75
		c0,0.552-0.448,1-1,1L148.6,158.439z"/>
	<path fill="#FFFFFF" d="M148.71,104.609l109.36,0.061l-0.03,52.75l-109.44,0.02L148.71,104.609 M148.71,102.609
		c-1.103,0-1.998,0.893-2,1.996l-0.11,52.83c0,0.53,0.209,1.041,0.584,1.416s0.885,0.588,1.416,0.588l0,0l109.44-0.021
		c1.104,0,1.999-0.896,2-1.999l0.03-52.75c0-0.529-0.211-1.039-0.586-1.415c-0.375-0.375-0.883-0.586-1.414-0.586L148.71,102.609
		C148.711,102.609,148.71,102.609,148.71,102.609L148.71,102.609z"/>
</g>
<path fill="#FFFFFF" d="M224.63,133.99c-0.14,8.279,6.44,15.119,14.7,15.279c8.27,0.16,15.08-6.42,15.23-14.699
	c0.14-8.28-6.44-15.12-14.701-15.28C231.59,119.13,224.77,125.71,224.63,133.99z"/>
<path fill="#E20074" d="M234.33,134.15c-0.051,2.89,2.25,5.279,5.13,5.34c2.89,0.05,5.271-2.25,5.319-5.141
	c0.051-2.891-2.25-5.279-5.139-5.33C236.76,128.96,234.38,131.26,234.33,134.15z"/>
<path fill="#FFFFFF" d="M143.7,133.99c-0.15,8.279,6.44,15.119,14.7,15.279s15.08-6.42,15.22-14.699
	c0.149-8.28-6.431-15.12-14.7-15.28C150.66,119.13,143.84,125.71,143.7,133.99z"/>
<path fill="#E20074" d="M153.4,134.15c-0.051,2.89,2.24,5.279,5.129,5.34c2.881,0.05,5.261-2.25,5.311-5.141
	c0.061-2.891-2.24-5.279-5.13-5.33C155.83,128.96,153.45,131.26,153.4,134.15z"/>
<line fill="none" stroke="#FFFFFF" stroke-width="2" stroke-linecap="round" stroke-linejoin="round" stroke-miterlimit="10" x1="177.3" y1="157.3" x2="177.3" y2="113.83"/>
<line fill="none" stroke="#FFFFFF" stroke-width="2" stroke-linecap="round" stroke-linejoin="round" stroke-miterlimit="10" x1="220.43" y1="113.7" x2="220.471" y2="157.33"/>
<polygon fill="#FFFFFF" points="213.17,120.02 183.91,120.01 183.91,137.24 213.15,137.189 "/>
<path fill="#E20074" d="M207.641,128.58c0,1.109-0.891,2.01-2,2.01c-1.111,0-2.011-0.9-2.011-2.01c0-1.11,0.899-2.01,2.011-2.01
	C206.75,126.57,207.641,127.471,207.641,128.58z"/>
<circle fill="#E20074" cx="191.09" cy="128.58" r="2.01"/>
<line fill="none" stroke="#FFFFFF" stroke-width="2" stroke-linecap="round" stroke-linejoin="round" stroke-miterlimit="10" x1="263" y1="113.73" x2="149" y2="113.73"/>
<line fill="none" stroke="#FFFFFF" stroke-width="2" stroke-linecap="round" stroke-linejoin="round" stroke-miterlimit="10" x1="220.35" y1="142.26" x2="177.51" y2="142.189"/>
<path fill="#FFFFFF" d="M218.35,108.641c0,1.67-1.35,3.021-3.01,3.021c-1.67,0-3.01-1.351-3.01-3.021s1.34-3.021,3.01-3.021
	C217,105.62,218.35,106.971,218.35,108.641z"/>
<path fill="#FFFFFF" d="M229.221,108.641c0,1.67-1.351,3.021-3.011,3.021c-1.67,0-3.01-1.351-3.01-3.021s1.34-3.021,3.01-3.021
	C227.87,105.62,229.221,106.971,229.221,108.641z"/>
<ellipse fill="#FFFFFF" cx="236.91" cy="108.641" rx="3.01" ry="3.02"/>
<path fill="#FFFFFF" d="M163.58,108.641c0,1.67-1.34,3.021-3.01,3.021c-1.66,0-3.01-1.351-3.01-3.021s1.35-3.021,3.01-3.021
	C162.24,105.62,163.58,106.971,163.58,108.641z"/>
<path fill="#FFFFFF" d="M174.12,108.641c0,1.67-1.351,3.021-3.011,3.021c-1.659,0-3.01-1.351-3.01-3.021s1.351-3.021,3.01-3.021
	C172.77,105.62,174.12,106.971,174.12,108.641z"/>
<path fill="#FFFFFF" d="M185.15,108.641c0,1.67-1.34,3.021-3.01,3.021c-1.66,0-3.012-1.351-3.012-3.021s1.352-3.021,3.012-3.021
	C183.811,105.62,185.15,106.971,185.15,108.641z"/>
<rect x="183.82" y="146.82" fill="none" stroke="#FFFFFF" stroke-width="2" stroke-linecap="round" stroke-linejoin="round" stroke-miterlimit="10" width="28.51" height="6.449"/>
<line fill="none" stroke="#FFFFFF" stroke-width="2" stroke-linecap="round" stroke-linejoin="round" stroke-miterlimit="10" x1="205.65" y1="146.92" x2="205.65" y2="153.12"/>
<line fill="none" stroke="#FFFFFF" stroke-width="2" stroke-linecap="round" stroke-linejoin="round" stroke-miterlimit="10" x1="198.04" y1="153.12" x2="198.04" y2="147"/>
<line fill="none" stroke="#FFFFFF" stroke-width="2" stroke-linecap="round" stroke-linejoin="round" stroke-miterlimit="10" x1="190.109" y1="153.12" x2="190.17" y2="147"/>
<g>
	<path fill="#E20074" d="M102.56,164.5c-3.307,0-6.1-2.973-6.1-6.49V84.78c0-3.353,2.623-5.88,6.1-5.88h41.299
		c3.466,0,6.181,2.583,6.181,5.88v73.229c0,3.458-2.888,6.49-6.181,6.49H102.56z M123.41,154.48c-1.125,0-2.04,0.896-2.04,2
		c0,1.098,0.915,1.989,2.04,1.989s2.04-0.893,2.04-1.989C125.45,155.377,124.535,154.48,123.41,154.48z M105.11,87.35
		c-0.89,0-0.89,0.566-0.89,0.78v58.851c0,0.666,0.458,1.369,0.89,1.369h36.63c0.527,0,1.199-0.768,1.199-1.369V88.13
		c0-0.481-0.623-0.78-1.199-0.78H105.11z"/>
	<path fill="#FFFFFF" d="M143.859,80.4c2.58,0,4.681,1.83,4.681,4.38v73.229c0,2.54-2.101,4.99-4.681,4.99H102.56
		c-2.58,0-4.6-2.45-4.6-4.99V84.78c0-2.55,2.02-4.38,4.6-4.38H143.859 M105.11,149.85h36.63c1.4,0,2.699-1.49,2.699-2.869V88.13
		c0-1.39-1.299-2.28-2.699-2.28h-36.63c-1.41,0-2.39,0.89-2.39,2.28v58.851C102.72,148.359,103.7,149.85,105.11,149.85
		 M123.41,159.971c1.96,0,3.54-1.561,3.54-3.49c0-1.931-1.58-3.5-3.54-3.5c-1.95,0-3.54,1.569-3.54,3.5
		C119.87,158.41,121.46,159.971,123.41,159.971 M143.859,77.4H102.56c-4.262,0-7.6,3.242-7.6,7.38v73.229
		c0,4.331,3.48,7.99,7.6,7.99h41.299c4.164,0,7.681-3.659,7.681-7.99V84.78C151.54,80.642,148.167,77.4,143.859,77.4L143.859,77.4z
		 M105.72,88.851h35.719v58H105.72V88.851L105.72,88.851z M123.41,156.971c-0.298,0-0.54-0.22-0.54-0.49s0.247-0.5,0.54-0.5
		c0.298,0,0.54,0.225,0.54,0.5C123.95,156.755,123.713,156.971,123.41,156.971L123.41,156.971z"/>
</g>
<path fill="#E20074" d="M60.91,152.98c-2.39,2.81-6.6,3.148-9.4,0.76c-2.81-2.4-3.14-6.62-0.75-9.43c2.39-2.812,6.6-3.142,9.4-0.75
	C62.97,145.96,63.3,150.17,60.91,152.98z M49.46,143.2c-3.01,3.53-2.58,8.829,0.94,11.84c3.52,3.01,8.81,2.58,11.81-0.95
	c3.01-3.529,2.58-8.82-0.94-11.83S52.46,139.67,49.46,143.2z"/>
<path fill="#E20074" d="M56.49,149.2c-0.31,0.36-0.85,0.409-1.21,0.1c-0.36-0.31-0.4-0.85-0.1-1.21c0.31-0.359,0.85-0.4,1.21-0.09
	C56.75,148.3,56.79,148.84,56.49,149.2z M53.75,146.87c-0.98,1.149-0.84,2.88,0.31,3.87c1.15,0.979,2.88,0.84,3.86-0.312
	c0.98-1.159,0.84-2.89-0.31-3.868C56.46,145.58,54.73,145.721,53.75,146.87z"/>
<path fill="#E20074" d="M127.66,74.5c-2.39,2.81-6.6,3.14-9.4,0.75c-2.8-2.4-3.14-6.61-0.75-9.42c2.39-2.81,6.6-3.15,9.4-0.76
	C129.72,67.47,130.05,71.69,127.66,74.5z M116.21,64.72c-3.01,3.521-2.58,8.82,0.94,11.83c3.52,3.01,8.81,2.59,11.81-0.94
	c3.01-3.53,2.58-8.83-0.94-11.84S119.21,61.19,116.21,64.72z"/>
<path fill="#E20074" d="M123.24,70.72c-0.31,0.36-0.85,0.4-1.21,0.09c-0.36-0.3-0.4-0.84-0.1-1.2c0.31-0.36,0.85-0.41,1.21-0.1
	C123.5,69.82,123.54,70.36,123.24,70.72z M120.5,68.38c-0.98,1.16-0.84,2.89,0.31,3.87s2.88,0.84,3.86-0.31s0.84-2.88-0.31-3.87
	C123.21,67.09,121.48,67.23,120.5,68.38z"/>
<polygon fill="#E20074" points="39.74,149.52 43.7,146.59 44.16,147.891 43.83,149.07 46.43,149.721 47.85,149.24 47.94,147.29 
	46.6,145.689 50.76,140.8 49.66,139.98 50.77,138.67 52.92,140.51 56.07,138.92 54.47,136.43 53.44,137.12 52.17,136.49 
	54.66,131.98 55.32,132.66 55.55,135.43 60.11,141.88 54,141.21 49.74,143.98 48.52,147.79 49.19,152.29 46.48,151.779 
	42.89,150.18 40.42,150.439 39.78,150 "/>
<polygon fill="#E20074" points="106.48,71.05 110.43,68.12 110.9,69.42 110.57,70.6 113.17,71.25 114.59,70.77 114.67,68.82 
	113.33,67.22 117.49,62.33 116.4,61.51 117.51,60.2 119.65,62.04 122.8,60.45 121.21,57.96 120.17,58.65 118.91,58.02 121.4,53.51 
	122.06,54.19 122.28,56.96 126.85,63.41 120.74,62.74 116.47,65.51 115.26,69.32 115.92,73.82 113.21,73.31 109.63,71.71 
	107.16,71.97 106.52,71.54 "/>
<path fill="#E20074" stroke="#E20074" stroke-linecap="round" stroke-linejoin="round" stroke-miterlimit="10" d="M114.98,56.26
	c8.69-10.21,11.64-21.8,12.58-27.26l2.42,0.42c-1.62,9.08-4.13,18.64-13.93,30.16L43.92,145.1c-7.6,8.931-20.54,16.23-26.22,17.09
	c-0.01-0.09-0.61-2.409-0.7-2.318c0.78-0.38,13.98-4.32,24.65-16.86C52.6,130.141,114.98,56.26,114.98,56.26z"/>
<polygon fill="#E20074" points="107.45,69.65 118.98,56.09 120.17,54.17 121.28,56.02 119.87,58.08 109.78,69.95 "/>
<polygon fill="#E20074" points="53.07,133.59 41.53,147.15 39.83,148.63 41.84,149.439 43.64,147.71 53.73,135.85 "/>
</svg>
